<svg width="417" height="425" viewBox="0 0 417 425" fill="none" xmlns="http://www.w3.org/2000/svg">
<path d="M71.3376 211.398C73.9982 138.035 134.39 79.3774 208.5 79.3774C282.412 79.3774 342.678 137.722 345.64 210.809C303.369 229.025 256.766 239.118 207.802 239.118C159.368 239.118 113.243 229.243 71.3376 211.398Z" fill="#F57742"/>
<g clip-path="url(#clip0_229_1317)">
<path d="M160.954 129.316C161.085 129.447 161.076 129.594 160.911 129.755L157.176 133.501C157.015 133.666 156.872 133.674 156.741 133.544L154.752 131.565C154.626 131.439 154.661 131.269 154.865 131.069C155.07 130.865 155.235 130.83 155.361 130.956L156.824 132.417L157.942 131.295L156.628 129.986C156.502 129.86 156.537 129.69 156.741 129.49C156.946 129.286 157.111 129.251 157.237 129.373L158.552 130.682L159.814 129.416L158.321 127.924C158.195 127.798 158.23 127.633 158.434 127.428C158.639 127.224 158.804 127.189 158.931 127.315L160.954 129.316Z" fill="white"/>
<path d="M153.037 125.097L152.175 125.823C151.91 126.049 151.762 126.293 151.727 126.567C151.692 126.841 151.771 127.093 151.962 127.32C152.154 127.546 152.389 127.668 152.663 127.681C152.941 127.694 153.207 127.589 153.472 127.367L154.334 126.641L153.037 125.097ZM154.996 126.084L156.406 124.892C156.567 124.758 156.754 124.819 156.972 125.08C157.19 125.336 157.22 125.532 157.059 125.671L154.099 128.163C153.651 128.542 153.163 128.698 152.641 128.629C152.119 128.559 151.671 128.307 151.301 127.863C150.931 127.424 150.752 126.937 150.774 126.411C150.796 125.884 151.031 125.427 151.479 125.053L154.439 122.561C154.6 122.422 154.787 122.487 155.005 122.748C155.222 123.009 155.257 123.2 155.092 123.34L153.681 124.527L154.996 126.084Z" fill="white"/>
<path d="M151.875 121.456C151.701 121.578 151.523 121.495 151.327 121.217C151.131 120.939 151.118 120.743 151.292 120.621L151.314 120.608C151.51 120.473 151.614 120.282 151.64 120.051C151.662 119.821 151.592 119.586 151.44 119.364C151.283 119.142 151.105 118.999 150.9 118.946C150.696 118.894 150.495 118.929 150.3 119.064C150.091 119.207 149.969 119.408 149.938 119.66C149.908 119.912 149.96 120.256 150.104 120.695C150.456 121.774 150.278 122.557 149.586 123.044C149.177 123.331 148.741 123.418 148.289 123.309C147.84 123.2 147.457 122.918 147.144 122.474C146.818 122.009 146.678 121.548 146.739 121.082C146.796 120.617 146.992 120.264 147.335 120.025L147.44 119.951C147.614 119.829 147.797 119.912 147.988 120.186C148.184 120.464 148.197 120.66 148.023 120.782L147.988 120.804C147.806 120.93 147.701 121.108 147.671 121.326C147.64 121.548 147.697 121.765 147.849 121.978C147.993 122.178 148.162 122.309 148.354 122.361C148.545 122.413 148.737 122.374 148.924 122.244C149.277 121.996 149.342 121.478 149.107 120.699C148.928 120.108 148.876 119.616 148.946 119.229C149.016 118.838 149.246 118.503 149.642 118.224C150.06 117.933 150.491 117.837 150.944 117.937C151.396 118.033 151.792 118.338 152.136 118.829C152.471 119.307 152.615 119.79 152.55 120.277C152.489 120.765 152.28 121.13 151.923 121.378L151.875 121.456Z" fill="white"/>
<path d="M142.844 115.397C142.752 115.245 142.831 115.088 143.083 114.945C143.331 114.801 143.505 114.81 143.592 114.962L144.232 116.071L148.437 113.64C148.619 113.535 148.794 113.631 148.963 113.923C149.133 114.214 149.129 114.414 148.946 114.518L144.741 116.95L145.381 118.055C145.468 118.207 145.394 118.364 145.142 118.507C144.894 118.651 144.72 118.642 144.628 118.49L142.844 115.397Z" fill="white"/>
<path d="M144.067 108.059C143.871 108.142 143.71 108.024 143.584 107.711C143.453 107.398 143.484 107.202 143.679 107.12L143.701 107.111C143.919 107.02 144.067 106.859 144.141 106.637C144.215 106.415 144.197 106.171 144.093 105.924C143.988 105.671 143.845 105.493 143.658 105.397C143.47 105.301 143.266 105.293 143.048 105.384C142.813 105.48 142.652 105.649 142.565 105.884C142.478 106.119 142.456 106.472 142.5 106.928C142.609 108.059 142.265 108.786 141.481 109.107C141.02 109.299 140.576 109.29 140.158 109.081C139.745 108.877 139.431 108.52 139.222 108.016C139.005 107.489 138.974 107.007 139.131 106.567C139.288 106.128 139.558 105.823 139.945 105.667L140.062 105.619C140.258 105.541 140.419 105.658 140.546 105.971C140.676 106.285 140.646 106.48 140.45 106.563L140.411 106.58C140.206 106.663 140.067 106.815 139.984 107.02C139.906 107.228 139.914 107.45 140.015 107.694C140.11 107.92 140.25 108.085 140.424 108.177C140.598 108.268 140.794 108.272 141.007 108.185C141.407 108.02 141.581 107.529 141.521 106.715C141.477 106.097 141.534 105.61 141.686 105.245C141.838 104.88 142.134 104.601 142.583 104.419C143.053 104.223 143.497 104.227 143.914 104.423C144.332 104.619 144.654 104.997 144.885 105.554C145.107 106.093 145.142 106.598 144.972 107.059C144.807 107.524 144.519 107.833 144.119 107.998L144.067 108.059Z" fill="white"/>
<path d="M142.744 100.682C142.944 100.617 143.096 100.747 143.201 101.069C143.305 101.391 143.262 101.587 143.061 101.652L137.856 103.362C137.656 103.427 137.503 103.296 137.399 102.974C137.29 102.653 137.333 102.461 137.538 102.396L142.744 100.682Z" fill="white"/>
<path d="M140.872 96.3759C140.802 96.0976 140.667 95.9105 140.467 95.8148C140.267 95.7191 140.045 95.7017 139.801 95.767C139.571 95.8235 139.383 95.941 139.244 96.1193C139.105 96.2933 139.061 96.5064 139.122 96.7413L139.392 97.8157L141.124 97.3807L140.872 96.3759ZM138.304 97.0371C138.247 96.8066 138.126 96.6456 137.947 96.5586C137.769 96.4716 137.573 96.4499 137.351 96.5064C137.138 96.5586 136.972 96.6717 136.855 96.8327C136.737 96.9936 136.707 97.1937 136.768 97.4242L137.02 98.4159L138.557 98.0288L138.304 97.0371ZM142.13 97.8374C142.182 98.0506 142.095 98.1854 141.864 98.2463L136.781 99.5251C136.541 99.586 136.402 99.5077 136.345 99.2946L135.893 97.4982C135.771 97.0197 135.823 96.6065 136.049 96.2455C136.271 95.8844 136.607 95.6495 137.042 95.5408C137.595 95.4016 138.06 95.5191 138.435 95.9062C138.57 95.3016 138.966 94.9231 139.614 94.7622C140.067 94.6491 140.489 94.697 140.885 94.9145C141.281 95.1319 141.542 95.5104 141.677 96.0454L142.13 97.8374Z" fill="white"/>
<path d="M140.763 91.8218C140.794 92.0045 140.698 92.1176 140.472 92.1524L135.244 92.9962C135.018 93.0354 134.896 92.9571 134.866 92.7744L134.417 90.0037C134.387 89.8297 134.517 89.7122 134.8 89.6687C135.088 89.6252 135.244 89.6905 135.27 89.8688L135.601 91.9088L137.168 91.6565L136.872 89.8253C136.842 89.6513 136.972 89.5339 137.255 89.4904C137.542 89.4426 137.699 89.5121 137.725 89.6905L138.021 91.5217L139.788 91.239L139.453 89.1555C139.423 88.9771 139.553 88.864 139.836 88.8205C140.123 88.7727 140.28 88.8423 140.306 89.0206L140.763 91.8218Z" fill="white"/>
<path d="M134.835 85.9106L136.711 85.7671L136.65 84.9624C136.607 84.3621 136.267 84.0881 135.645 84.1403C135.018 84.1881 134.731 84.51 134.774 85.1103L134.835 85.9106ZM139.466 82.8223C139.675 82.8049 139.793 82.9702 139.819 83.3051C139.845 83.6444 139.758 83.8184 139.545 83.8358L139.053 83.875C137.982 83.9576 137.464 84.3143 137.512 84.9276L137.568 85.6975L139.671 85.5365C139.884 85.5191 139.997 85.6801 140.023 86.0193C140.049 86.3586 139.962 86.5326 139.749 86.55L134.365 86.9632C134.156 86.9806 134.039 86.8762 134.021 86.6674L133.899 85.0842C133.856 84.5187 133.973 84.0576 134.252 83.7053C134.53 83.353 134.957 83.1573 135.54 83.1138C136.197 83.0616 136.694 83.2878 137.02 83.801C137.286 83.2442 137.838 82.9398 138.674 82.8745L139.466 82.8223Z" fill="white"/>
<path d="M139.401 79.2643C139.614 79.2599 139.719 79.4296 139.723 79.7689C139.727 80.1081 139.632 80.2778 139.418 80.2821L133.943 80.3735C133.73 80.3778 133.625 80.2082 133.621 79.8689C133.616 79.5296 133.712 79.36 133.925 79.3556L139.401 79.2643Z" fill="white"/>
<path d="M136.924 73.4705L135.797 73.3966C135.453 73.3748 135.175 73.4488 134.957 73.6227C134.744 73.7967 134.626 74.036 134.604 74.3317C134.587 74.6275 134.67 74.8798 134.861 75.0799C135.053 75.28 135.318 75.3887 135.662 75.4148L136.789 75.4888L136.924 73.4705ZM137.656 75.541L139.501 75.6628C139.714 75.6758 139.801 75.8541 139.78 76.1934C139.758 76.5327 139.645 76.6936 139.431 76.6806L135.562 76.4239C134.979 76.3848 134.517 76.1586 134.187 75.7454C133.856 75.3322 133.712 74.8407 133.751 74.2665C133.791 73.6923 133.999 73.2226 134.382 72.8572C134.765 72.4918 135.249 72.3265 135.836 72.3657L139.701 72.6223C139.914 72.6354 140.006 72.8137 139.98 73.1486C139.958 73.4879 139.845 73.6488 139.632 73.6358L137.786 73.514L137.656 75.541Z" fill="white"/>
<path d="M139.148 66.7067C138.94 66.6633 138.874 66.4762 138.944 66.1456C139.014 65.8151 139.148 65.6672 139.357 65.7107L139.383 65.715C139.614 65.7629 139.827 65.7107 140.015 65.5671C140.197 65.4236 140.319 65.2148 140.376 64.9495C140.432 64.6842 140.411 64.4536 140.311 64.2709C140.21 64.0839 140.045 63.9664 139.814 63.9143C139.566 63.8621 139.34 63.9099 139.135 64.0578C138.931 64.2057 138.718 64.4797 138.496 64.8842C137.947 65.8803 137.255 66.2892 136.424 66.1152C135.932 66.0108 135.571 65.7542 135.344 65.3497C135.118 64.9451 135.057 64.4754 135.17 63.9447C135.288 63.3879 135.532 62.9704 135.91 62.6963C136.289 62.4223 136.685 62.3223 137.09 62.4049L137.216 62.431C137.425 62.4745 137.49 62.6615 137.421 62.9921C137.351 63.3227 137.216 63.4706 137.007 63.4271L136.968 63.4184C136.75 63.3705 136.55 63.4184 136.367 63.5445C136.184 63.6707 136.067 63.8621 136.015 64.1187C135.962 64.3579 135.989 64.5711 136.084 64.7494C136.176 64.9234 136.337 65.0365 136.559 65.0843C136.981 65.1713 137.403 64.8625 137.808 64.1578C138.117 63.6228 138.439 63.2488 138.77 63.0356C139.101 62.8181 139.505 62.7572 139.98 62.8529C140.476 62.9573 140.842 63.2053 141.081 63.6011C141.32 63.9969 141.373 64.4928 141.246 65.08C141.124 65.6541 140.872 66.0847 140.472 66.3718C140.076 66.6633 139.662 66.7589 139.24 66.6676L139.148 66.7067Z" fill="white"/>
<path d="M137.373 55.9761C137.425 55.8064 137.59 55.7586 137.864 55.8412C138.139 55.9239 138.252 56.0544 138.2 56.224L137.83 57.4506L142.487 58.8469C142.687 58.9078 142.739 59.0992 142.639 59.4254C142.539 59.7516 142.395 59.8821 142.191 59.8212L137.534 58.425L137.164 59.6516C137.111 59.8212 136.946 59.869 136.672 59.7864C136.393 59.7038 136.285 59.5733 136.337 59.3993L137.373 55.9761Z" fill="white"/>
<path d="M142.239 51.5916L141.194 51.1697C140.872 51.0392 140.585 51.0261 140.328 51.1218C140.071 51.2175 139.884 51.4089 139.775 51.6829C139.662 51.957 139.666 52.2223 139.788 52.4746C139.906 52.7225 140.123 52.9096 140.445 53.04L141.49 53.4576L142.239 51.5916ZM142.291 53.7838L144.006 54.4711C144.202 54.5494 144.232 54.7451 144.106 55.0583C143.98 55.3715 143.823 55.4933 143.623 55.415L140.028 53.9709C139.484 53.7534 139.118 53.3967 138.931 52.9009C138.748 52.405 138.761 51.8917 138.974 51.3567C139.192 50.8217 139.536 50.4433 140.01 50.2127C140.489 49.9822 140.998 49.9779 141.542 50.1954L145.137 51.6394C145.333 51.7177 145.364 51.9135 145.242 52.2267C145.116 52.5398 144.959 52.6616 144.759 52.5833L143.044 51.8961L142.291 53.7838Z" fill="white"/>
<path d="M142.622 43.7578C142.704 43.6012 142.874 43.5795 143.131 43.71C143.388 43.8405 143.475 43.9884 143.392 44.1493L142.813 45.2889L147.148 47.4898C147.335 47.5855 147.353 47.7813 147.196 48.0858C147.044 48.3859 146.874 48.4946 146.687 48.3946L142.352 46.1936L141.773 47.3333C141.69 47.4942 141.521 47.5116 141.264 47.3811C141.007 47.2506 140.92 47.1027 141.003 46.9418L142.622 43.7578Z" fill="white"/>
<path d="M149.268 44.1623C149.168 44.3189 149.024 44.3407 148.833 44.2232L144.332 41.4394C144.136 41.3176 144.093 41.1828 144.189 41.0262L145.664 38.6382C145.76 38.486 145.93 38.4817 146.173 38.6339C146.417 38.7861 146.491 38.9384 146.4 39.0906L145.312 40.8522L146.661 41.6874L147.636 40.1084C147.732 39.9562 147.901 39.9518 148.145 40.1041C148.393 40.2563 148.463 40.4129 148.371 40.5608L147.396 42.1397L148.92 43.0793L150.03 41.2829C150.121 41.1306 150.295 41.1263 150.539 41.2785C150.783 41.4307 150.857 41.5873 150.765 41.7352L149.268 44.1623Z" fill="white"/>
<path d="M153.333 34.9932C153.603 35.215 153.869 35.3151 154.147 35.302C154.421 35.289 154.656 35.1628 154.844 34.9323C155.031 34.7018 155.109 34.4495 155.07 34.1755C155.031 33.9014 154.883 33.6579 154.613 33.436L151.649 30.9958C151.483 30.861 151.514 30.6653 151.727 30.4043C151.945 30.1433 152.128 30.0781 152.293 30.2129L155.283 32.6748C155.736 33.0489 155.98 33.5013 156.006 34.0276C156.032 34.5539 155.862 35.0411 155.496 35.4847C155.131 35.9284 154.687 36.1894 154.165 36.2633C153.642 36.3373 153.15 36.1894 152.698 35.8153L149.708 33.3534C149.542 33.2185 149.573 33.0228 149.79 32.7618C150.008 32.5008 150.191 32.4312 150.356 32.5661L153.333 34.9932Z" fill="white"/>
<path d="M158.909 31.1307C159.061 31.2786 159.013 31.4743 158.769 31.7135C158.53 31.9528 158.339 32.0006 158.186 31.8527L155.444 29.1168C155.031 28.7036 154.83 28.2294 154.852 27.7031C154.874 27.1768 155.092 26.7071 155.496 26.2982C155.901 25.8893 156.371 25.6718 156.898 25.6501C157.425 25.624 157.899 25.8241 158.312 26.2373L161.055 28.9732C161.207 29.1211 161.159 29.3169 160.92 29.5561C160.68 29.7953 160.489 29.8432 160.336 29.6953L157.616 26.9854C157.372 26.7375 157.111 26.6157 156.837 26.6027C156.563 26.5896 156.315 26.694 156.106 26.9028C155.897 27.1116 155.792 27.3595 155.805 27.6335C155.818 27.9119 155.945 28.1686 156.188 28.4121L158.909 31.1307Z" fill="white"/>
<path d="M163.766 26.5679C163.905 26.7288 163.844 26.9158 163.588 27.1377C163.331 27.3595 163.135 27.3943 162.996 27.2334L159.401 23.0968C159.261 22.9359 159.322 22.7488 159.579 22.527C159.836 22.3052 160.032 22.2704 160.171 22.4313L163.766 26.5679Z" fill="white"/>
<path d="M166.735 24.019C166.186 23.8798 165.603 23.6362 164.998 23.2969C164.467 22.9968 164.027 22.6053 163.67 22.1312L162.469 20.5218C162.343 20.3522 162.417 20.1695 162.691 19.965C162.965 19.7606 163.161 19.7432 163.287 19.9129L164.484 21.5135C164.758 21.8789 165.085 22.1747 165.459 22.4052C165.864 22.6619 166.347 22.8837 166.9 23.0751C166.874 22.4879 166.8 21.9659 166.669 21.5048C166.556 21.0829 166.365 20.6871 166.09 20.3174L164.893 18.7167C164.767 18.5471 164.841 18.3644 165.115 18.1599C165.39 17.9598 165.585 17.9381 165.712 18.1077L166.913 19.7171C167.27 20.1912 167.518 20.7262 167.657 21.3222C167.814 21.9964 167.879 22.6271 167.857 23.1925C167.84 23.5666 167.744 23.8189 167.561 23.9537C167.366 24.0885 167.096 24.1103 166.735 24.019Z" fill="white"/>
<path d="M171.413 21.1743C171.252 21.2743 171.117 21.2265 170.996 21.0351L168.214 16.5331C168.092 16.3374 168.114 16.1982 168.275 16.0982L170.665 14.6236C170.817 14.5323 170.974 14.6019 171.122 14.8498C171.274 15.0978 171.27 15.2674 171.117 15.3587L169.355 16.4462L170.19 17.7946L171.77 16.8202C171.923 16.7289 172.075 16.7985 172.227 17.0464C172.38 17.29 172.375 17.464 172.223 17.5553L170.643 18.5297L171.583 20.052L173.381 18.9429C173.533 18.8515 173.685 18.9211 173.838 19.1691C173.99 19.4126 173.986 19.5866 173.833 19.678L171.413 21.1743Z" fill="white"/>
<path d="M174.617 13.4275L175.466 15.1065L176.184 14.7454C176.719 14.4757 176.845 14.0625 176.562 13.5014C176.28 12.9447 175.875 12.7968 175.335 13.0665L174.617 13.4275ZM179.239 16.5331C179.335 16.7202 179.231 16.8898 178.926 17.0421C178.626 17.1943 178.425 17.1813 178.33 16.9899L178.108 16.5505C177.62 15.5893 177.098 15.25 176.545 15.5284L175.857 15.8763L176.811 17.7598C176.906 17.9468 176.802 18.1164 176.497 18.2687C176.192 18.4209 175.997 18.4079 175.901 18.2165L173.463 13.4014C173.368 13.2143 173.416 13.0665 173.607 12.9708L175.022 12.2574C175.527 12.0008 175.997 11.9355 176.432 12.0573C176.867 12.1791 177.207 12.501 177.472 13.023C177.768 13.6145 177.751 14.1539 177.402 14.6541C178.016 14.6845 178.512 15.0804 178.891 15.8285L179.239 16.5331Z" fill="white"/>
<path d="M180.819 14.3192C180.741 14.1234 180.863 13.9625 181.176 13.8407C181.489 13.7146 181.685 13.7494 181.764 13.9451L181.772 13.9668C181.859 14.1887 182.02 14.3322 182.242 14.4105C182.464 14.4844 182.704 14.4714 182.961 14.3714C183.213 14.2713 183.391 14.1278 183.492 13.9407C183.592 13.7537 183.6 13.5493 183.513 13.3274C183.418 13.0925 183.252 12.9273 183.017 12.8403C182.782 12.7533 182.434 12.7272 181.973 12.762C180.841 12.8577 180.114 12.5053 179.801 11.718C179.614 11.2526 179.631 10.809 179.84 10.3957C180.049 9.98252 180.41 9.67805 180.915 9.47361C181.442 9.26048 181.925 9.23438 182.364 9.39532C182.804 9.55626 183.104 9.83029 183.257 10.2174L183.304 10.3348C183.383 10.5306 183.261 10.6915 182.948 10.8133C182.634 10.9395 182.438 10.9047 182.36 10.7089L182.343 10.6698C182.26 10.4653 182.112 10.3218 181.907 10.2392C181.703 10.1565 181.476 10.1652 181.233 10.2609C181.006 10.3522 180.841 10.4914 180.745 10.6654C180.649 10.8394 180.645 11.0351 180.732 11.2483C180.893 11.6485 181.385 11.8268 182.195 11.7789C182.808 11.7441 183.3 11.805 183.666 11.9616C184.031 12.1182 184.306 12.4183 184.484 12.8664C184.671 13.3405 184.667 13.7798 184.467 14.1974C184.266 14.6149 183.883 14.9325 183.322 15.1543C182.778 15.3718 182.277 15.3979 181.816 15.2239C181.355 15.0543 181.045 14.7628 180.889 14.3627L180.819 14.3192Z" fill="white"/>
<path d="M188.21 13.0621C188.275 13.2665 188.144 13.4144 187.822 13.5145C187.5 13.6145 187.309 13.571 187.243 13.3709L185.576 8.15566C185.511 7.95557 185.642 7.80333 185.964 7.70329C186.286 7.5989 186.477 7.64674 186.543 7.84683L188.21 13.0621Z" fill="white"/>
<path d="M192.684 5.94602C192.858 5.90252 192.98 6.01996 193.05 6.30269C193.119 6.58107 193.063 6.74636 192.889 6.78986L191.644 7.09433L192.802 11.8094C192.849 12.0138 192.71 12.153 192.384 12.2357C192.053 12.3183 191.866 12.2574 191.814 12.053L190.656 7.33792L189.411 7.64239C189.237 7.68589 189.115 7.56845 189.045 7.28572C188.976 7.00299 189.032 6.84205 189.206 6.79856L192.684 5.94602Z" fill="white"/>
<path d="M197.811 10.8133L197.546 9.07344C197.028 9.05169 196.61 8.88205 196.297 8.57323C195.983 8.26005 195.779 7.82073 195.692 7.25962L195.444 5.65459C195.413 5.4458 195.565 5.31966 195.896 5.26747C196.231 5.21527 196.414 5.29357 196.445 5.498L196.714 7.25527C196.767 7.5989 196.897 7.85118 197.115 8.01647C197.328 8.18176 197.594 8.24265 197.92 8.19045C198.247 8.14261 198.482 8.00342 198.638 7.78158C198.795 7.55975 198.843 7.27702 198.791 6.93775L198.521 5.18047C198.49 4.97169 198.643 4.84555 198.978 4.79335C199.313 4.74116 199.496 4.8151 199.526 5.02388L199.774 6.62892C199.861 7.19003 199.796 7.67284 199.591 8.05996C199.387 8.45144 199.034 8.73851 198.551 8.9125L198.817 10.6524C198.847 10.8612 198.695 10.9873 198.364 11.0395C198.025 11.096 197.842 11.0221 197.811 10.8133Z" fill="white"/>
<path d="M208.971 6.08521C208.962 5.73723 208.867 5.46755 208.675 5.26747C208.484 5.06738 208.24 4.97169 207.944 4.97604C207.648 4.98039 207.404 5.08478 207.217 5.29357C207.034 5.50235 206.943 5.77203 206.952 6.12001L206.991 8.32529C206.995 8.67327 207.095 8.94295 207.282 9.14304C207.474 9.34312 207.718 9.44316 208.018 9.43446C208.314 9.43011 208.558 9.32572 208.74 9.11694C208.923 8.90815 209.015 8.63847 209.006 8.2905L208.971 6.08521ZM210.016 8.30355C210.024 8.89075 209.837 9.36487 209.463 9.73024C209.089 10.0913 208.605 10.2783 208.031 10.287C207.456 10.2957 206.969 10.1261 206.582 9.77809C206.194 9.43011 205.994 8.956 205.981 8.37314L205.942 6.10261C205.933 5.5154 206.12 5.04128 206.494 4.67591C206.869 4.31489 207.352 4.12785 207.926 4.11915C208.501 4.11045 208.988 4.28009 209.376 4.62806C209.763 4.97604 209.963 5.45015 209.976 6.03301L210.016 8.30355Z" fill="white"/>
<path d="M212.871 4.64111C212.888 4.41493 212.988 4.31054 213.176 4.32359L216.061 4.53237C216.24 4.54542 216.322 4.69766 216.301 4.98474C216.279 5.27182 216.174 5.41101 215.996 5.39796L213.846 5.24137L213.724 6.9073L215.596 7.04214C215.774 7.05519 215.857 7.20743 215.835 7.4945C215.813 7.78158 215.709 7.92077 215.535 7.90773L213.663 7.77289L213.493 10.0913C213.48 10.3001 213.302 10.3914 212.962 10.3696C212.623 10.3435 212.462 10.2305 212.479 10.0173L212.871 4.64111Z" fill="white"/>
<path d="M225.828 6.11131C226.002 6.1461 226.063 6.30704 226.007 6.58977C225.95 6.8725 225.828 6.99429 225.654 6.95949L224.401 6.70286L223.426 11.4571C223.382 11.6615 223.195 11.7311 222.864 11.6615C222.533 11.5919 222.385 11.4614 222.429 11.2526L223.404 6.49843L222.15 6.2418C221.976 6.207 221.915 6.04606 221.972 5.76333C222.029 5.4806 222.15 5.35881 222.325 5.39361L225.828 6.11131Z" fill="white"/>
<path d="M227.186 12.6097C227.008 12.5575 226.947 12.427 227.012 12.2052L228.501 7.13783C228.566 6.92035 228.683 6.8377 228.862 6.8899L231.552 7.68154C231.722 7.72939 231.769 7.89468 231.691 8.17306C231.608 8.45144 231.478 8.56018 231.308 8.51233L229.323 7.92947L228.875 9.44751L230.655 9.96948C230.825 10.0217 230.873 10.1826 230.794 10.461C230.712 10.735 230.581 10.8481 230.411 10.8003L228.631 10.2783L228.126 11.9921L230.15 12.588C230.32 12.6402 230.368 12.8011 230.29 13.0795C230.207 13.3579 230.081 13.4666 229.907 13.4188L227.186 12.6097Z" fill="white"/>
<path d="M233.719 10.3348C233.933 9.79114 234.289 9.41706 234.773 9.22568C235.26 9.03429 235.774 9.04299 236.309 9.25178C236.849 9.46056 237.236 9.79549 237.462 10.2609C237.693 10.722 237.706 11.2222 237.497 11.7572L237.471 11.8181C237.393 12.0182 237.201 12.0486 236.884 11.9268C236.566 11.8007 236.444 11.6485 236.522 11.4484L236.531 11.4266C236.653 11.1178 236.662 10.8394 236.557 10.5915C236.457 10.3435 236.27 10.1609 235.996 10.0521C235.717 9.94338 235.46 9.95208 235.212 10.0739C234.964 10.1957 234.777 10.4131 234.651 10.735L233.85 12.7881C233.724 13.1143 233.711 13.397 233.811 13.6537C233.911 13.9103 234.102 14.0973 234.377 14.2061C234.651 14.3148 234.912 14.3061 235.156 14.193C235.399 14.0799 235.582 13.8668 235.704 13.5623L235.713 13.5406C235.791 13.3448 235.987 13.31 236.3 13.4318C236.618 13.5536 236.736 13.7102 236.662 13.9103L236.635 13.9712C236.427 14.5062 236.078 14.8629 235.595 15.0499C235.112 15.2369 234.599 15.2195 234.063 15.0064C233.528 14.7976 233.14 14.454 232.914 13.9842C232.688 13.5145 232.679 13.0012 232.892 12.4575L233.719 10.3348Z" fill="white"/>
<path d="M243.221 12.7533C243.317 12.5619 243.512 12.5488 243.817 12.7011C244.122 12.8533 244.226 13.0186 244.13 13.21L241.68 18.1077C241.584 18.2991 241.388 18.3122 241.084 18.1599C240.779 18.0077 240.675 17.8424 240.77 17.651L241.819 15.5501L240.213 14.7454L239.164 16.8463C239.069 17.0334 238.873 17.0508 238.568 16.8985C238.263 16.7463 238.159 16.581 238.255 16.3896L240.705 11.4919C240.801 11.3005 240.997 11.2874 241.301 11.4397C241.606 11.5919 241.71 11.7572 241.615 11.9486L240.601 13.9712L242.207 14.7759L243.221 12.7533Z" fill="white"/>
<path d="M244.749 19.8737C244.635 20.052 244.439 20.052 244.152 19.8694C243.865 19.691 243.774 19.5127 243.887 19.3343L245.941 16.046C246.25 15.5501 246.668 15.25 247.19 15.1543C247.708 15.0586 248.213 15.163 248.705 15.4718C249.197 15.7763 249.51 16.1852 249.654 16.6941C249.793 17.203 249.71 17.7076 249.401 18.2034L247.347 21.4918C247.234 21.6701 247.038 21.6701 246.746 21.4874C246.459 21.3091 246.368 21.1308 246.481 20.9524L248.518 17.6945C248.701 17.3987 248.766 17.1204 248.718 16.8507C248.666 16.5766 248.513 16.3635 248.261 16.2069C248.009 16.0503 247.747 16.0068 247.482 16.0808C247.216 16.1547 246.99 16.3331 246.807 16.6288L244.749 19.8737Z" fill="white"/>
<path d="M254.08 21.6527C254.289 21.3743 254.381 21.1047 254.359 20.8306C254.333 20.5566 254.202 20.3261 253.963 20.1434C253.728 19.965 253.471 19.8955 253.197 19.9433C252.922 19.9911 252.687 20.1521 252.474 20.4261L251.138 22.1834C250.929 22.4618 250.838 22.7314 250.859 23.0055C250.886 23.2795 251.016 23.51 251.255 23.6884C251.491 23.8711 251.747 23.9363 252.022 23.8885C252.296 23.8406 252.531 23.6797 252.744 23.4056L254.08 21.6527ZM253.527 24.0451C253.171 24.5105 252.731 24.7715 252.209 24.8193C251.691 24.8715 251.199 24.7193 250.738 24.3669C250.281 24.019 250.002 23.584 249.915 23.0664C249.828 22.5531 249.963 22.0572 250.315 21.5918L251.695 19.7867C252.052 19.3213 252.492 19.0603 253.014 19.0125C253.532 18.9603 254.024 19.1125 254.485 19.4605C254.942 19.8085 255.221 20.2434 255.308 20.761C255.395 21.2743 255.26 21.7702 254.907 22.2356L253.527 24.0451Z" fill="white"/>
<path d="M254.485 27.2812C254.333 27.1464 254.333 26.9941 254.485 26.8245L258.098 22.8358C258.241 22.6793 258.433 22.7184 258.685 22.9446C258.938 23.1708 258.994 23.3622 258.851 23.5187L255.591 27.1159L257.218 28.5861C257.349 28.7036 257.323 28.8732 257.131 29.0863C256.94 29.2995 256.77 29.343 256.64 29.2255L254.485 27.2812Z" fill="white"/>
<path d="M263.225 30.152C263.477 29.9171 263.612 29.6605 263.634 29.3865C263.656 29.1124 263.564 28.8645 263.36 28.647C263.16 28.4295 262.916 28.3208 262.642 28.3208C262.367 28.3208 262.106 28.4382 261.849 28.6775L260.239 30.1781C259.987 30.413 259.852 30.6696 259.83 30.9437C259.808 31.2177 259.9 31.4656 260.104 31.6831C260.304 31.9006 260.548 32.0093 260.822 32.0093C261.101 32.0093 261.362 31.8919 261.614 31.657L263.225 30.152ZM262.276 32.4138C261.849 32.8097 261.371 32.9924 260.848 32.9576C260.326 32.9228 259.869 32.6879 259.473 32.2703C259.081 31.8484 258.881 31.3786 258.881 30.8567C258.881 30.3347 259.094 29.8693 259.525 29.4735L261.188 27.9293C261.614 27.5335 262.093 27.3508 262.615 27.3856C263.138 27.4204 263.595 27.6553 263.987 28.0729C264.378 28.4948 264.578 28.9689 264.578 29.4865C264.578 30.0085 264.365 30.4739 263.939 30.8697L262.276 32.4138Z" fill="white"/>
<path d="M265.662 35.8196C265.553 35.6805 265.601 35.5239 265.823 35.3499C266.045 35.1759 266.211 35.1672 266.319 35.3107L267.22 36.4721C267.334 36.62 267.321 36.7505 267.164 36.8679L266.35 37.4986C265.889 37.8553 265.392 37.9945 264.879 37.9118C264.365 37.8292 263.926 37.5552 263.573 37.0985C263.22 36.6417 263.064 36.1502 263.112 35.6326C263.16 35.115 263.416 34.667 263.878 34.3103L265.675 32.9184C266.137 32.5617 266.633 32.4225 267.151 32.5095C267.664 32.5922 268.104 32.8662 268.457 33.3229C268.809 33.7796 268.97 34.2625 268.935 34.7714C268.9 35.2803 268.665 35.7109 268.23 36.0458L268.178 36.0893C268.008 36.2198 267.825 36.1459 267.621 35.8805C267.412 35.6109 267.39 35.4151 267.556 35.2846L267.569 35.2716C267.786 35.0932 267.921 34.8714 267.982 34.5974C268.039 34.3277 267.973 34.0754 267.795 33.8405C267.612 33.6057 267.386 33.4795 267.112 33.4578C266.837 33.436 266.563 33.5274 266.289 33.7405L264.544 35.0933C264.269 35.3064 264.113 35.5456 264.065 35.8196C264.017 36.0937 264.087 36.3503 264.269 36.5852C264.452 36.8201 264.683 36.9506 264.957 36.9767C265.231 36.9984 265.501 36.9071 265.78 36.6939L266.137 36.4199L265.662 35.8196Z" fill="white"/>
<path d="M267.273 41.6961L268.757 40.7522C268.57 40.2694 268.552 39.817 268.713 39.4038C268.874 38.9906 269.192 38.6252 269.671 38.3207L271.042 37.4464C271.22 37.3333 271.399 37.4203 271.577 37.7074C271.76 37.9945 271.764 38.1902 271.586 38.3033L270.084 39.2559C269.793 39.4429 269.614 39.6648 269.549 39.9257C269.484 40.1867 269.536 40.4564 269.714 40.7348C269.893 41.0132 270.115 41.1741 270.38 41.2263C270.646 41.2785 270.924 41.2133 271.216 41.0262L272.718 40.0736C272.896 39.9605 273.075 40.0475 273.253 40.3346C273.436 40.6217 273.44 40.8174 273.262 40.9305L271.891 41.8048C271.412 42.1093 270.946 42.2441 270.507 42.2137C270.067 42.1832 269.662 41.9788 269.305 41.6047L267.821 42.5486C267.643 42.6617 267.464 42.5747 267.281 42.2876C267.099 42.0049 267.094 41.8092 267.273 41.6961Z" fill="white"/>
<path d="M275.116 50.5607L276.143 50.0953C276.461 49.9518 276.67 49.756 276.778 49.4994C276.887 49.2471 276.879 48.9818 276.757 48.7078C276.635 48.4381 276.443 48.2554 276.178 48.1684C275.917 48.0814 275.629 48.1075 275.316 48.251L274.289 48.7165L275.116 50.5607ZM273.492 49.0818L271.808 49.843C271.616 49.93 271.451 49.8169 271.316 49.5081C271.177 49.1993 271.199 49.0035 271.39 48.9165L274.92 47.3202C275.455 47.0766 275.965 47.0592 276.452 47.268C276.935 47.4768 277.296 47.8422 277.536 48.3685C277.771 48.8904 277.81 49.4037 277.645 49.9083C277.484 50.4085 277.131 50.7826 276.596 51.0261L273.066 52.6225C272.874 52.7095 272.709 52.5964 272.57 52.2875C272.43 51.9787 272.452 51.783 272.648 51.696L274.332 50.9348L273.492 49.0818Z" fill="white"/>
<path d="M274.324 55.9065C274.123 55.9761 273.971 55.8499 273.862 55.5281C273.754 55.2062 273.793 55.0148 273.993 54.9452L277.658 53.6925C278.21 53.5055 278.724 53.5359 279.185 53.7882C279.647 54.0405 279.973 54.4406 280.16 54.9887C280.348 55.5324 280.334 56.0457 280.121 56.5328C279.912 57.0157 279.525 57.3549 278.968 57.542L275.303 58.7947C275.103 58.8643 274.95 58.7338 274.842 58.4163C274.733 58.0944 274.772 57.903 274.972 57.8334L278.607 56.5937C278.937 56.4806 279.164 56.3067 279.294 56.0631C279.425 55.8195 279.442 55.5542 279.346 55.2758C279.251 54.9931 279.077 54.7973 278.82 54.6842C278.567 54.5755 278.28 54.5711 277.954 54.6842L274.324 55.9065Z" fill="white"/>
<path d="M277.044 62.8964C277.114 63.1835 277.27 63.3923 277.505 63.5184C277.745 63.6446 278.032 63.6707 278.367 63.5924L280.308 63.1226C280.648 63.04 280.887 62.8877 281.044 62.6659C281.201 62.4441 281.244 62.1874 281.174 61.9003L280.979 61.0826L276.861 62.0743L277.044 62.8964ZM275.864 61.6089C275.812 61.3958 275.904 61.2609 276.134 61.2044L281.231 59.9778C281.47 59.9212 281.61 59.9995 281.662 60.2127L282.015 61.6872C282.149 62.2483 282.089 62.7572 281.832 63.214C281.575 63.6663 281.157 63.9708 280.591 64.1056L278.585 64.5885C278.019 64.7276 277.51 64.645 277.074 64.3579C276.639 64.0708 276.352 63.6402 276.217 63.0835L275.864 61.6089Z" fill="white"/>
<path d="M277.832 73.8359C277.806 73.4966 277.893 73.3226 278.106 73.3052L282.11 72.992C282.389 72.9703 282.611 72.8746 282.776 72.7006C282.942 72.5266 283.011 72.3265 282.989 72.0873C282.968 71.835 282.868 71.6393 282.689 71.5001C282.506 71.3609 282.271 71.3044 281.98 71.3261L277.975 71.6436C277.767 71.661 277.649 71.5001 277.623 71.1608C277.597 70.8216 277.684 70.6432 277.897 70.6302L281.814 70.3213C282.38 70.2778 282.85 70.4083 283.225 70.7215C283.599 71.0303 283.808 71.4479 283.851 71.9829C283.873 72.2787 283.838 72.5527 283.729 72.8094C283.625 73.066 283.468 73.2748 283.268 73.4314C283.49 73.5575 283.673 73.7402 283.821 73.9751C283.969 74.21 284.047 74.4753 284.073 74.7711C284.117 75.3017 283.982 75.7497 283.66 76.1151C283.338 76.4805 282.894 76.6849 282.328 76.7284L278.411 77.0372C278.197 77.0546 278.084 76.8937 278.058 76.5544C278.032 76.2152 278.119 76.0412 278.332 76.0238L282.337 75.7062C282.633 75.6845 282.863 75.5888 283.02 75.4235C283.177 75.2582 283.246 75.0494 283.225 74.7928C283.207 74.5536 283.107 74.3665 282.915 74.223C282.724 74.0751 282.489 74.0186 282.21 74.0403L278.21 74.3578C277.997 74.3752 277.884 74.2143 277.858 73.875L277.832 73.8359Z" fill="white"/>
<path d="M281.031 82.6353L282.158 82.6701C282.506 82.6831 282.781 82.5961 282.989 82.4178C283.198 82.2351 283.307 81.9959 283.316 81.7001C283.325 81.4043 283.233 81.1521 283.033 80.9607C282.837 80.7693 282.567 80.6649 282.219 80.6562L281.092 80.6214L281.031 82.6353ZM280.23 80.5953L278.38 80.5387C278.167 80.5344 278.071 80.3604 278.08 80.0211C278.093 79.6819 278.197 79.5166 278.411 79.5209L282.284 79.6427C282.868 79.6601 283.338 79.8689 283.682 80.2691C284.025 80.6692 284.186 81.1608 284.169 81.7349C284.152 82.3091 283.956 82.7875 283.59 83.166C283.22 83.5444 282.741 83.7271 282.154 83.7053L278.28 83.5835C278.071 83.5792 277.971 83.4052 277.984 83.0659C277.993 82.7266 278.102 82.5614 278.315 82.5657L280.165 82.6222L280.23 80.5953Z" fill="white"/>
<path d="M277.967 87.0937C277.758 87.0676 277.675 86.8893 277.719 86.55C277.762 86.2151 277.884 86.0585 278.093 86.0846L281.936 86.5674C282.515 86.6414 282.963 86.8936 283.268 87.3242C283.573 87.7549 283.69 88.2551 283.616 88.8292C283.547 89.3991 283.307 89.8558 282.907 90.1994C282.506 90.543 282.01 90.6735 281.431 90.6039L277.588 90.1211C277.379 90.095 277.296 89.9123 277.34 89.5774C277.379 89.2425 277.505 89.0859 277.714 89.112L281.523 89.5904C281.867 89.6339 282.145 89.573 282.371 89.4165C282.598 89.2555 282.728 89.025 282.768 88.7292C282.802 88.4334 282.733 88.1811 282.554 87.968C282.376 87.7592 282.119 87.6331 281.775 87.5896L277.967 87.0937Z" fill="white"/>
<path d="M279.133 96.1411L280.23 96.3846C280.57 96.4586 280.852 96.4281 281.092 96.2889C281.331 96.1498 281.484 95.9323 281.549 95.6452C281.614 95.3538 281.566 95.0928 281.41 94.8666C281.253 94.6404 281.009 94.4925 280.67 94.4142L279.573 94.1707L279.133 96.1411ZM278.728 93.9836L276.931 93.5834C276.726 93.5399 276.661 93.3486 276.735 93.018C276.809 92.6874 276.944 92.5439 277.153 92.5917L280.922 93.4312C281.492 93.5574 281.91 93.8531 282.171 94.3098C282.432 94.7666 282.502 95.2755 282.376 95.8409C282.25 96.402 281.971 96.8327 281.544 97.1371C281.114 97.4416 280.609 97.5286 280.038 97.3981L276.269 96.5543C276.065 96.5064 276.004 96.3194 276.073 95.9888C276.147 95.6582 276.282 95.5147 276.491 95.5626L278.289 95.9671L278.728 93.9836Z" fill="white"/>
<path d="M276.9 101.713C276.957 101.543 277.114 101.496 277.379 101.583C277.645 101.67 277.745 101.8 277.688 101.97L277.236 103.362C277.179 103.536 277.061 103.596 276.874 103.536L275.899 103.218C275.342 103.04 274.95 102.705 274.733 102.235C274.511 101.761 274.493 101.248 274.672 100.7C274.85 100.151 275.168 99.7469 275.625 99.4947C276.082 99.2424 276.591 99.2032 277.148 99.3859L279.307 100.086C279.864 100.265 280.256 100.599 280.474 101.069C280.696 101.543 280.713 102.057 280.535 102.605C280.356 103.153 280.047 103.562 279.608 103.818C279.168 104.075 278.681 104.123 278.158 103.953L278.093 103.931C277.893 103.866 277.845 103.675 277.949 103.353C278.054 103.031 278.202 102.9 278.406 102.966L278.424 102.97C278.694 103.048 278.955 103.035 279.212 102.931C279.468 102.827 279.638 102.631 279.729 102.352C279.821 102.07 279.799 101.813 279.66 101.574C279.525 101.335 279.294 101.161 278.963 101.052L276.87 100.373C276.539 100.269 276.252 100.269 276.004 100.386C275.751 100.499 275.582 100.704 275.49 100.987C275.399 101.269 275.421 101.535 275.555 101.774C275.69 102.013 275.921 102.187 276.252 102.296L276.678 102.435L276.9 101.713Z" fill="white"/>
<path d="M273.162 105.206C273.236 105.036 273.37 104.993 273.584 105.08L278.459 107.15C278.672 107.237 278.737 107.368 278.663 107.542L277.566 110.125C277.497 110.291 277.327 110.317 277.061 110.208C276.796 110.095 276.7 109.951 276.77 109.79L277.579 107.885L276.117 107.268L275.39 108.977C275.32 109.142 275.151 109.173 274.885 109.06C274.62 108.947 274.524 108.803 274.594 108.642L275.32 106.933L273.671 106.232L272.844 108.177C272.774 108.342 272.604 108.368 272.339 108.255C272.073 108.142 271.978 107.998 272.047 107.837L273.162 105.206Z" fill="white"/>
<path d="M269.436 112.813C269.601 112.518 269.771 112.418 269.958 112.522L273.462 114.466C273.706 114.601 273.941 114.645 274.176 114.592C274.411 114.54 274.576 114.41 274.694 114.201C274.816 113.979 274.842 113.762 274.768 113.544C274.694 113.327 274.533 113.153 274.271 113.009L270.768 111.065C270.581 110.96 270.576 110.765 270.742 110.469C270.907 110.173 271.077 110.073 271.264 110.177L274.694 112.078C275.19 112.352 275.508 112.722 275.647 113.187C275.786 113.653 275.734 114.118 275.473 114.584C275.329 114.845 275.146 115.049 274.916 115.206C274.685 115.358 274.441 115.445 274.189 115.471C274.306 115.702 274.359 115.954 274.35 116.228C274.341 116.502 274.263 116.767 274.119 117.028C273.858 117.494 273.501 117.789 273.035 117.916C272.57 118.042 272.087 117.972 271.59 117.694L268.161 115.793C267.973 115.693 267.969 115.493 268.134 115.197C268.3 114.901 268.47 114.801 268.657 114.906L272.16 116.846C272.417 116.989 272.665 117.037 272.887 116.985C273.109 116.933 273.283 116.798 273.405 116.572C273.518 116.363 273.54 116.154 273.462 115.928C273.384 115.702 273.223 115.523 272.979 115.388L269.475 113.444C269.288 113.344 269.284 113.144 269.445 112.848L269.436 112.813Z" fill="white"/>
<path d="M266.385 117.981C266.489 117.829 266.637 117.816 266.824 117.946L271.164 120.978C271.351 121.108 271.39 121.247 271.281 121.4L269.671 123.701C269.571 123.849 269.397 123.84 269.162 123.675C268.927 123.509 268.861 123.353 268.961 123.205L270.15 121.508L268.848 120.599L267.782 122.122C267.682 122.265 267.508 122.261 267.273 122.096C267.038 121.93 266.972 121.769 267.072 121.626L268.139 120.103L266.672 119.077L265.462 120.804C265.362 120.952 265.188 120.943 264.953 120.778C264.718 120.612 264.652 120.451 264.753 120.308L266.385 117.981Z" fill="white"/>
<path d="M262.79 123.222C262.629 123.087 262.659 122.892 262.877 122.631C263.094 122.37 263.281 122.309 263.447 122.444L266.415 124.936C266.864 125.31 267.103 125.767 267.125 126.293C267.146 126.819 266.972 127.307 266.598 127.746C266.228 128.19 265.78 128.442 265.253 128.511C264.731 128.581 264.239 128.424 263.791 128.046L260.822 125.554C260.661 125.419 260.692 125.223 260.909 124.962C261.127 124.701 261.314 124.636 261.479 124.775L264.422 127.246C264.687 127.467 264.957 127.572 265.231 127.559C265.506 127.546 265.745 127.424 265.936 127.198C266.128 126.972 266.206 126.719 266.171 126.445C266.137 126.171 265.989 125.923 265.723 125.702L262.79 123.222Z" fill="white"/>
<path d="M260.748 133.844C260.622 133.97 260.457 133.935 260.252 133.731C260.048 133.527 260.013 133.357 260.139 133.235L261.044 132.33L257.614 128.894C257.466 128.746 257.514 128.555 257.754 128.316C257.993 128.076 258.185 128.029 258.337 128.181L261.767 131.617L262.672 130.712C262.798 130.586 262.968 130.625 263.168 130.825C263.373 131.03 263.408 131.2 263.281 131.321L260.748 133.844Z" fill="white"/>
<path d="M208.897 0.813391C165.546 0.813391 130.282 36.0545 130.282 79.3774C130.282 122.7 165.551 157.941 208.897 157.941C252.244 157.941 287.512 122.696 287.512 79.3774C287.512 36.0589 252.244 0.813391 208.897 0.813391ZM208.897 158.755C203.509 158.755 198.12 158.211 192.889 157.141C187.788 156.097 182.773 154.54 177.977 152.517C173.272 150.53 168.732 148.068 164.484 145.197C160.28 142.356 156.323 139.099 152.728 135.506C149.133 131.913 145.869 127.959 143.031 123.757C140.163 119.512 137.699 114.975 135.706 110.273C133.677 105.484 132.119 100.469 131.079 95.3712C130.013 90.1428 129.469 84.7623 129.469 79.3774C129.469 73.9925 130.013 68.6119 131.083 63.3792C132.128 58.2814 133.686 53.2706 135.71 48.4772C137.699 43.7752 140.163 39.2385 143.035 34.9932C145.877 30.7914 149.142 26.8375 152.733 23.2447C156.328 19.6519 160.28 16.3896 164.489 13.5536C168.737 10.6872 173.272 8.22525 177.981 6.2331C182.773 4.20614 187.792 2.64896 192.893 1.60938C198.12 0.54371 203.509 0 208.897 0C214.285 0 219.669 0.54371 224.906 1.61373C230.007 2.65766 235.021 4.21484 239.817 6.23745C244.522 8.22525 249.062 10.6915 253.31 13.558C257.514 16.3983 261.471 19.6562 265.066 23.2491C268.661 26.8419 271.925 30.7914 274.763 34.9976C277.632 39.2428 280.095 43.7752 282.089 48.4816C284.117 53.2706 285.675 58.2858 286.715 63.3836C287.786 68.6119 288.33 73.9925 288.33 79.3817C288.33 84.771 287.786 90.1472 286.715 95.3799C285.671 100.478 284.112 105.489 282.089 110.282C280.099 114.984 277.636 119.521 274.763 123.766C271.921 127.968 268.657 131.922 265.066 135.514C261.471 139.107 257.519 142.365 253.31 145.205C249.066 148.072 244.527 150.534 239.817 152.526C235.025 154.553 230.007 156.11 224.906 157.15C219.669 158.211 214.285 158.755 208.897 158.755Z" fill="white"/>
<path d="M251.29 137.602C251.29 137.602 251.09 137.746 250.746 137.994C250.572 138.12 250.359 138.268 250.119 138.442C250.089 138.463 250.059 138.485 250.028 138.507C249.998 138.529 249.963 138.55 249.932 138.572C249.867 138.616 249.802 138.664 249.732 138.711C249.593 138.807 249.449 138.903 249.297 139.007C249.145 139.112 248.988 139.216 248.822 139.329C248.74 139.386 248.657 139.442 248.574 139.499C248.487 139.555 248.4 139.612 248.313 139.668C247.961 139.899 247.591 140.138 247.203 140.386C246.816 140.63 246.411 140.873 246.002 141.126C245.898 141.186 245.797 141.252 245.693 141.313C245.589 141.373 245.484 141.434 245.38 141.495C245.171 141.617 244.957 141.743 244.749 141.865C244.644 141.926 244.535 141.987 244.431 142.048C244.326 142.109 244.222 142.174 244.113 142.23C243.9 142.348 243.687 142.465 243.478 142.583C243.269 142.7 243.06 142.813 242.851 142.926C242.799 142.957 242.746 142.983 242.699 143.013C242.646 143.039 242.594 143.065 242.542 143.092C242.437 143.144 242.337 143.2 242.233 143.252C242.028 143.357 241.828 143.461 241.632 143.561C241.532 143.614 241.436 143.661 241.341 143.714C241.245 143.761 241.149 143.814 241.058 143.857C240.679 144.04 240.322 144.218 239.996 144.379C239.913 144.418 239.83 144.457 239.752 144.497C239.713 144.514 239.674 144.536 239.634 144.553C239.595 144.57 239.556 144.588 239.521 144.605C239.369 144.675 239.225 144.74 239.09 144.805C238.82 144.931 238.585 145.036 238.39 145.127C238.194 145.214 238.041 145.288 237.937 145.332C237.832 145.375 237.776 145.401 237.776 145.401L236.588 142.709C236.588 142.709 236.631 142.691 236.705 142.657C236.744 142.639 236.788 142.622 236.84 142.6C236.892 142.578 236.953 142.548 237.014 142.522C237.271 142.404 237.61 142.248 237.95 142.091C238.037 142.052 238.12 142.013 238.207 141.974C238.289 141.935 238.372 141.895 238.45 141.856C238.607 141.778 238.755 141.708 238.881 141.643C239.134 141.521 239.304 141.439 239.304 141.439C239.304 141.439 239.473 141.356 239.726 141.234C239.852 141.173 239.996 141.095 240.152 141.017C240.309 140.934 240.474 140.847 240.64 140.764C240.971 140.59 241.306 140.421 241.554 140.282C241.802 140.147 241.963 140.055 241.963 140.055L237.706 132.317C237.706 132.317 237.563 132.396 237.349 132.513C237.136 132.635 236.844 132.783 236.553 132.931C236.409 133.005 236.261 133.083 236.126 133.153C235.991 133.222 235.865 133.292 235.752 133.344C235.53 133.453 235.382 133.522 235.382 133.522C235.382 133.522 235.291 133.566 235.13 133.644C235.051 133.683 234.951 133.731 234.842 133.788C234.786 133.814 234.725 133.844 234.664 133.875C234.633 133.892 234.599 133.905 234.568 133.922C234.533 133.94 234.498 133.953 234.468 133.97C234.189 134.096 233.863 134.249 233.515 134.41C233.428 134.449 233.341 134.492 233.249 134.531C233.158 134.571 233.066 134.61 232.975 134.649C232.792 134.727 232.601 134.81 232.414 134.888C232.322 134.927 232.226 134.971 232.135 135.01C232.087 135.032 232.039 135.049 231.996 135.071L231.926 135.101C231.904 135.11 231.878 135.119 231.856 135.132C231.669 135.206 231.486 135.28 231.308 135.353C231.13 135.423 230.96 135.493 230.794 135.558C230.712 135.593 230.633 135.623 230.555 135.654C230.477 135.684 230.403 135.71 230.333 135.736C229.759 135.949 229.376 136.097 229.376 136.097C229.376 136.097 229.354 136.106 229.306 136.123C229.284 136.132 229.254 136.141 229.223 136.154C229.188 136.167 229.154 136.18 229.11 136.193C228.94 136.254 228.701 136.337 228.409 136.437C228.266 136.489 228.109 136.541 227.944 136.597C227.861 136.628 227.774 136.654 227.687 136.68C227.6 136.711 227.508 136.737 227.417 136.767C227.234 136.824 227.047 136.885 226.855 136.945C226.664 137.006 226.468 137.072 226.272 137.128C225.88 137.246 225.489 137.359 225.119 137.467C224.749 137.567 224.405 137.659 224.109 137.737C223.961 137.776 223.826 137.815 223.704 137.846C223.582 137.876 223.478 137.902 223.391 137.924C223.217 137.968 223.117 137.989 223.117 137.989C223.117 137.989 222.96 138.029 222.721 138.085C222.603 138.116 222.464 138.146 222.316 138.185C222.242 138.202 222.163 138.22 222.085 138.237C222.007 138.255 221.928 138.272 221.846 138.289C221.528 138.359 221.206 138.429 220.967 138.481C220.906 138.494 220.853 138.507 220.801 138.516C220.753 138.524 220.71 138.533 220.675 138.542C220.605 138.555 220.566 138.564 220.566 138.564L222.29 147.228C222.29 147.228 222.381 147.211 222.542 147.18C222.703 147.15 222.934 147.098 223.208 147.037C223.482 146.976 223.804 146.906 224.148 146.832C224.235 146.815 224.322 146.793 224.409 146.771C224.496 146.75 224.588 146.728 224.675 146.706C224.853 146.663 225.036 146.619 225.219 146.576C225.402 146.532 225.585 146.489 225.763 146.445C225.854 146.423 225.941 146.397 226.028 146.376C226.116 146.354 226.203 146.328 226.285 146.306C226.625 146.215 226.942 146.132 227.212 146.058C227.487 145.988 227.709 145.919 227.865 145.871C228.022 145.823 228.113 145.797 228.113 145.797L228.94 148.624C228.94 148.624 228.705 148.694 228.296 148.816C227.883 148.924 227.291 149.085 226.586 149.277C226.229 149.364 225.841 149.455 225.432 149.555C225.332 149.581 225.228 149.603 225.123 149.629C225.071 149.642 225.019 149.655 224.966 149.668C224.94 149.677 224.914 149.681 224.888 149.69C224.862 149.694 224.836 149.703 224.81 149.707C224.592 149.755 224.375 149.803 224.148 149.851C223.252 150.051 222.29 150.234 221.328 150.408C219.4 150.751 217.458 150.991 215.996 151.138C215.63 151.169 215.295 151.199 214.999 151.23C214.703 151.256 214.442 151.282 214.229 151.291C213.802 151.317 213.559 151.334 213.559 151.334L213.371 148.398C213.371 148.398 213.559 148.385 213.837 148.368C213.907 148.363 213.985 148.359 214.063 148.355C214.142 148.35 214.229 148.346 214.316 148.337C214.49 148.32 214.677 148.307 214.864 148.289C215.239 148.255 215.613 148.224 215.892 148.198C216.17 148.168 216.357 148.146 216.357 148.146C216.357 148.146 216.544 148.124 216.823 148.094C216.962 148.076 217.128 148.059 217.302 148.037C217.389 148.028 217.48 148.015 217.572 148.007C217.663 147.998 217.754 147.981 217.85 147.968C218.22 147.915 218.594 147.863 218.873 147.824C219.012 147.807 219.13 147.789 219.208 147.776C219.291 147.767 219.334 147.759 219.334 147.759L217.989 139.029C217.989 139.029 217.95 139.038 217.876 139.046C217.807 139.055 217.702 139.068 217.585 139.085C217.341 139.12 217.019 139.164 216.697 139.212C216.614 139.225 216.536 139.233 216.457 139.246C216.379 139.255 216.301 139.264 216.222 139.273C216.07 139.29 215.926 139.307 215.804 139.32C215.561 139.346 215.4 139.368 215.4 139.368C215.4 139.368 215.3 139.381 215.121 139.399C215.034 139.412 214.925 139.42 214.799 139.429C214.677 139.442 214.534 139.451 214.381 139.468C214.229 139.481 214.063 139.499 213.889 139.512C213.715 139.525 213.528 139.547 213.341 139.555C212.958 139.581 212.553 139.607 212.144 139.634C211.326 139.668 210.512 139.707 209.898 139.707C209.593 139.712 209.337 139.716 209.158 139.721C209.067 139.725 208.997 139.721 208.949 139.721C208.901 139.721 208.875 139.721 208.875 139.721C208.875 139.721 208.466 139.716 207.852 139.707C207.774 139.707 207.696 139.707 207.613 139.703C207.53 139.703 207.443 139.699 207.356 139.694C207.182 139.69 206.995 139.681 206.804 139.673C206.612 139.664 206.416 139.66 206.212 139.651C206.159 139.647 206.111 139.647 206.059 139.647C206.007 139.642 205.959 139.638 205.907 139.638C205.807 139.634 205.702 139.625 205.602 139.62C205.398 139.607 205.193 139.594 204.993 139.581C204.893 139.577 204.793 139.568 204.693 139.564C204.645 139.56 204.592 139.56 204.545 139.555C204.497 139.551 204.449 139.547 204.401 139.542C204.018 139.507 203.661 139.477 203.356 139.451C203.282 139.447 203.208 139.438 203.139 139.433C203.104 139.429 203.069 139.429 203.039 139.425C203.004 139.42 202.973 139.416 202.943 139.416C202.821 139.403 202.712 139.39 202.621 139.381C202.442 139.36 202.342 139.351 202.342 139.351C202.342 139.351 202.181 139.333 201.937 139.307C201.816 139.294 201.672 139.277 201.52 139.259C201.367 139.238 201.206 139.216 201.045 139.194C200.719 139.151 200.397 139.107 200.153 139.072C200.092 139.064 200.035 139.055 199.988 139.051C199.94 139.042 199.896 139.033 199.861 139.029C199.792 139.016 199.748 139.012 199.748 139.012L198.852 144.831L198.399 147.737C198.399 147.737 198.49 147.754 198.656 147.781C198.817 147.802 199.052 147.837 199.33 147.872C199.609 147.911 199.935 147.954 200.284 148.002C200.327 148.007 200.371 148.015 200.414 148.02C200.458 148.024 200.501 148.028 200.549 148.037C200.64 148.046 200.732 148.059 200.823 148.068C201.006 148.089 201.193 148.111 201.38 148.128C201.567 148.15 201.755 148.172 201.937 148.189C202.029 148.198 202.12 148.211 202.212 148.22C202.303 148.229 202.39 148.237 202.477 148.242C202.825 148.272 203.156 148.302 203.435 148.324C203.713 148.346 203.948 148.372 204.114 148.376C204.279 148.385 204.37 148.394 204.37 148.394L204.175 151.33C204.175 151.33 204.114 151.326 204.001 151.317C203.887 151.308 203.718 151.304 203.504 151.282C203.291 151.265 203.03 151.243 202.734 151.217C202.586 151.204 202.429 151.191 202.26 151.178C202.177 151.169 202.09 151.165 202.003 151.156C201.959 151.152 201.916 151.147 201.872 151.143C201.829 151.138 201.781 151.134 201.737 151.13C200.279 150.978 198.338 150.73 196.414 150.395C194.49 150.051 192.584 149.62 191.161 149.264C191.117 149.251 191.074 149.242 191.03 149.233C190.987 149.22 190.943 149.212 190.9 149.199C190.817 149.177 190.734 149.155 190.651 149.133C190.49 149.09 190.338 149.051 190.194 149.011C189.907 148.933 189.655 148.868 189.45 148.811C189.241 148.759 189.085 148.707 188.971 148.677C188.863 148.646 188.802 148.629 188.802 148.629L189.624 145.801C189.624 145.801 189.803 145.854 190.073 145.936C190.342 146.01 190.708 146.106 191.069 146.206C191.252 146.254 191.431 146.306 191.6 146.349C191.77 146.397 191.931 146.432 192.066 146.467C192.34 146.532 192.523 146.576 192.523 146.576C192.523 146.576 192.706 146.619 192.98 146.684C193.115 146.719 193.276 146.758 193.446 146.797C193.615 146.837 193.803 146.876 193.985 146.915C194.351 146.993 194.721 147.072 194.995 147.132C195.065 147.145 195.126 147.163 195.182 147.172C195.239 147.185 195.287 147.193 195.326 147.198C195.404 147.211 195.452 147.219 195.452 147.219L197.176 138.555C197.176 138.555 197.137 138.546 197.067 138.533C197.032 138.524 196.989 138.52 196.941 138.507C196.893 138.498 196.836 138.485 196.775 138.472C196.536 138.42 196.214 138.35 195.896 138.281C195.735 138.246 195.574 138.211 195.426 138.181C195.278 138.146 195.139 138.111 195.017 138.081C194.778 138.024 194.621 137.985 194.621 137.985C194.621 137.985 194.521 137.963 194.347 137.92C194.26 137.898 194.155 137.872 194.033 137.846C194.003 137.837 193.972 137.828 193.942 137.824C193.911 137.815 193.877 137.807 193.842 137.798C193.772 137.781 193.703 137.759 193.629 137.741C193.333 137.663 192.989 137.567 192.619 137.467C192.571 137.454 192.527 137.441 192.479 137.428C192.432 137.415 192.388 137.402 192.34 137.385C192.244 137.359 192.149 137.328 192.053 137.302C191.861 137.246 191.666 137.185 191.47 137.128C191.374 137.098 191.274 137.072 191.178 137.041C191.13 137.028 191.082 137.011 191.03 136.998C190.982 136.98 190.934 136.967 190.886 136.95C190.695 136.889 190.508 136.828 190.325 136.767C190.142 136.706 189.968 136.65 189.798 136.597C189.716 136.571 189.633 136.545 189.555 136.519C189.476 136.493 189.402 136.463 189.328 136.441C188.749 136.236 188.366 136.102 188.366 136.102C188.366 136.102 188.34 136.093 188.297 136.076C188.253 136.058 188.184 136.036 188.101 136.006C187.935 135.941 187.696 135.849 187.409 135.741C186.834 135.532 186.081 135.214 185.324 134.901C184.95 134.736 184.575 134.571 184.227 134.418C184.049 134.344 183.883 134.262 183.727 134.188C183.57 134.114 183.418 134.044 183.278 133.979C183.139 133.914 183.013 133.853 182.9 133.801C182.786 133.748 182.691 133.705 182.608 133.661C182.447 133.579 182.356 133.535 182.356 133.535C182.356 133.535 182.208 133.461 181.99 133.353C181.881 133.296 181.755 133.235 181.616 133.166C181.546 133.131 181.476 133.096 181.407 133.061C181.333 133.026 181.263 132.987 181.189 132.948C180.902 132.796 180.615 132.639 180.397 132.526C180.288 132.47 180.197 132.422 180.136 132.387C180.071 132.352 180.036 132.335 180.036 132.335L175.779 140.077C175.779 140.077 175.801 140.09 175.84 140.112C175.879 140.134 175.936 140.164 176.01 140.203C176.153 140.282 176.362 140.39 176.61 140.521C176.732 140.586 176.867 140.66 177.011 140.734C177.08 140.773 177.154 140.812 177.228 140.851C177.302 140.891 177.381 140.93 177.459 140.969C177.772 141.125 178.108 141.295 178.443 141.46C178.525 141.504 178.612 141.543 178.695 141.587C178.739 141.608 178.778 141.63 178.821 141.647C178.865 141.669 178.904 141.687 178.948 141.708C179.113 141.787 179.278 141.865 179.439 141.939C179.757 142.087 180.053 142.23 180.31 142.348C180.375 142.378 180.436 142.404 180.493 142.43C180.554 142.456 180.606 142.483 180.658 142.504C180.763 142.548 180.854 142.591 180.928 142.622C181.08 142.687 181.163 142.726 181.163 142.726L179.979 145.423C179.979 145.423 179.757 145.323 179.365 145.153C179.17 145.071 178.935 144.958 178.665 144.831C178.395 144.705 178.09 144.562 177.759 144.405C176.441 143.766 174.695 142.874 173.002 141.891C172.158 141.395 171.318 140.899 170.543 140.399C170.347 140.277 170.16 140.156 169.973 140.038C169.951 140.025 169.925 140.008 169.903 139.995C169.881 139.977 169.86 139.964 169.833 139.951C169.79 139.921 169.742 139.89 169.699 139.86C169.607 139.799 169.52 139.742 169.433 139.681C169.085 139.447 168.75 139.229 168.445 139.025C167.844 138.603 167.344 138.25 166.996 138.007C166.652 137.754 166.456 137.607 166.456 137.607L164.711 139.977C164.737 139.995 164.941 140.147 165.276 140.395C165.642 140.651 166.16 141.017 166.787 141.456C167.104 141.669 167.448 141.895 167.814 142.139C167.905 142.2 167.997 142.261 168.092 142.322C168.14 142.352 168.188 142.383 168.232 142.413C168.254 142.43 168.28 142.443 168.301 142.461C168.323 142.474 168.349 142.491 168.375 142.509C168.571 142.63 168.767 142.757 168.972 142.883C169.777 143.4 170.652 143.918 171.531 144.436C171.975 144.684 172.419 144.936 172.854 145.184C172.911 145.214 172.963 145.245 173.02 145.275C173.076 145.306 173.128 145.336 173.185 145.362C173.294 145.419 173.403 145.48 173.511 145.536C173.729 145.654 173.942 145.767 174.156 145.88C174.26 145.936 174.364 145.993 174.469 146.045C174.521 146.071 174.573 146.102 174.626 146.128C174.678 146.154 174.73 146.18 174.782 146.206C174.987 146.31 175.187 146.41 175.383 146.506C175.579 146.606 175.77 146.697 175.953 146.789C176.044 146.837 176.136 146.88 176.223 146.924C176.31 146.967 176.401 147.006 176.488 147.05C176.832 147.211 177.15 147.363 177.433 147.493C177.716 147.624 177.96 147.741 178.164 147.828C178.573 148.007 178.804 148.111 178.804 148.111C178.804 148.111 178.991 148.194 179.27 148.316C179.339 148.346 179.413 148.381 179.496 148.416C179.574 148.45 179.661 148.49 179.748 148.524C179.927 148.598 180.114 148.672 180.301 148.75C180.68 148.903 181.054 149.059 181.337 149.177C181.624 149.285 181.812 149.359 181.812 149.359L185.011 141.126C185.011 141.126 184.841 141.06 184.593 140.965C184.345 140.865 184.01 140.725 183.679 140.59C183.513 140.521 183.348 140.456 183.191 140.39C183.113 140.36 183.039 140.325 182.969 140.295C182.9 140.264 182.83 140.234 182.769 140.208C182.521 140.099 182.36 140.025 182.36 140.025C182.36 140.025 182.195 139.951 181.951 139.847C181.89 139.821 181.82 139.79 181.751 139.76C181.681 139.729 181.607 139.699 181.529 139.66C181.376 139.586 181.215 139.512 181.05 139.433C180.723 139.281 180.401 139.129 180.158 139.016C179.918 138.894 179.757 138.816 179.757 138.816L181.059 136.176C181.059 136.176 181.154 136.223 181.324 136.306C181.407 136.35 181.511 136.397 181.629 136.45C181.746 136.506 181.881 136.567 182.025 136.637C182.168 136.706 182.329 136.78 182.495 136.858C182.66 136.937 182.834 137.024 183.022 137.098C183.391 137.259 183.783 137.433 184.175 137.607C184.967 137.933 185.759 138.263 186.364 138.485C186.665 138.598 186.917 138.694 187.091 138.764C187.178 138.798 187.248 138.82 187.296 138.838C187.344 138.855 187.37 138.864 187.37 138.864C187.37 138.864 187.774 139.007 188.379 139.22C188.453 139.246 188.536 139.277 188.614 139.303C188.697 139.333 188.784 139.36 188.871 139.386C189.045 139.442 189.233 139.503 189.424 139.564C189.616 139.625 189.811 139.69 190.012 139.755C190.06 139.773 190.112 139.79 190.164 139.803C190.216 139.816 190.264 139.834 190.316 139.847C190.421 139.877 190.521 139.908 190.625 139.938C190.83 139.999 191.034 140.06 191.239 140.121C191.339 140.151 191.439 140.182 191.539 140.212C191.587 140.225 191.639 140.243 191.687 140.256C191.735 140.269 191.787 140.282 191.835 140.295C192.223 140.399 192.584 140.499 192.897 140.582C192.976 140.604 193.05 140.621 193.119 140.643C193.154 140.651 193.189 140.66 193.224 140.669C193.259 140.677 193.289 140.686 193.324 140.695C193.45 140.725 193.563 140.751 193.655 140.773C193.837 140.817 193.942 140.843 193.942 140.843L193.246 143.705C193.246 143.705 193.071 143.661 192.81 143.6C192.68 143.57 192.527 143.535 192.362 143.487C192.201 143.444 192.027 143.396 191.853 143.348C191.505 143.257 191.161 143.161 190.9 143.092C190.643 143.013 190.469 142.965 190.469 142.965C190.469 142.965 190.295 142.913 190.038 142.839C189.907 142.8 189.759 142.757 189.598 142.709C189.515 142.687 189.433 142.661 189.35 142.635C189.267 142.609 189.18 142.578 189.093 142.552C188.41 142.33 187.727 142.109 187.727 142.109L184.893 150.473L186.443 150.978C186.443 150.978 186.538 151.008 186.686 151.056C186.834 151.099 187.03 151.156 187.222 151.217C187.613 151.334 188.001 151.447 188.001 151.447C188.001 151.447 188.062 151.465 188.175 151.499C188.288 151.534 188.458 151.586 188.671 151.643C188.884 151.7 189.145 151.774 189.446 151.852C189.594 151.891 189.755 151.934 189.925 151.982C190.007 152.004 190.094 152.03 190.181 152.052C190.225 152.065 190.268 152.074 190.316 152.087C190.36 152.095 190.408 152.108 190.456 152.121C191.935 152.496 193.92 152.939 195.922 153.296C197.924 153.644 199.944 153.905 201.463 154.061C201.511 154.066 201.559 154.07 201.602 154.079C201.65 154.083 201.694 154.088 201.742 154.092C201.833 154.101 201.92 154.109 202.007 154.114C202.181 154.131 202.347 154.144 202.499 154.157C202.808 154.183 203.078 154.205 203.3 154.227C203.522 154.248 203.696 154.257 203.813 154.262C203.931 154.27 203.996 154.275 203.996 154.275C203.996 154.275 204.201 154.288 204.505 154.305C204.658 154.314 204.836 154.327 205.028 154.335C205.123 154.34 205.224 154.349 205.324 154.353C205.424 154.362 205.524 154.362 205.628 154.366C206.442 154.396 207.256 154.422 207.256 154.422L207.465 145.597C207.465 145.597 206.747 145.571 206.029 145.545C205.937 145.54 205.85 145.54 205.763 145.536C205.676 145.532 205.589 145.523 205.502 145.519C205.332 145.51 205.176 145.497 205.041 145.493C204.771 145.475 204.592 145.466 204.592 145.466C204.592 145.466 204.414 145.453 204.144 145.44C203.874 145.419 203.517 145.384 203.16 145.353C202.982 145.34 202.804 145.323 202.634 145.31C202.464 145.297 202.312 145.275 202.177 145.262C201.911 145.232 201.729 145.21 201.729 145.21L202.051 142.283C202.051 142.283 202.155 142.296 202.342 142.317C202.434 142.326 202.547 142.339 202.677 142.356C202.708 142.361 202.743 142.365 202.777 142.37C202.812 142.374 202.847 142.374 202.882 142.378C202.956 142.383 203.03 142.391 203.113 142.396C203.435 142.422 203.809 142.456 204.209 142.491C204.257 142.496 204.31 142.5 204.362 142.504C204.414 142.509 204.462 142.509 204.514 142.513C204.619 142.517 204.723 142.526 204.827 142.53C205.036 142.543 205.254 142.557 205.467 142.57C205.572 142.574 205.681 142.583 205.789 142.591C205.842 142.596 205.894 142.596 205.95 142.6C206.003 142.604 206.055 142.604 206.107 142.604C206.316 142.613 206.525 142.617 206.725 142.626C206.925 142.635 207.121 142.639 207.304 142.648C207.395 142.652 207.487 142.657 207.574 142.657C207.661 142.657 207.744 142.657 207.826 142.661C208.471 142.67 208.897 142.674 208.897 142.674C208.897 142.674 208.923 142.674 208.975 142.674C209.028 142.674 209.102 142.678 209.193 142.674C209.38 142.67 209.65 142.665 209.972 142.661C210.616 142.661 211.474 142.617 212.327 142.583C212.753 142.557 213.184 142.526 213.585 142.5C213.785 142.491 213.976 142.47 214.164 142.452C214.346 142.435 214.52 142.422 214.682 142.404C214.843 142.391 214.991 142.378 215.117 142.365C215.247 142.352 215.361 142.343 215.452 142.335C215.639 142.313 215.744 142.3 215.744 142.3L216.061 145.227C216.061 145.227 215.883 145.249 215.613 145.279C215.343 145.306 214.986 145.336 214.629 145.366C214.451 145.384 214.272 145.397 214.103 145.414C214.02 145.423 213.937 145.427 213.859 145.432C213.781 145.436 213.711 145.44 213.641 145.445C213.371 145.462 213.193 145.475 213.193 145.475C213.193 145.475 213.015 145.488 212.745 145.506C212.679 145.51 212.605 145.514 212.527 145.519C212.449 145.523 212.37 145.527 212.283 145.532C212.114 145.54 211.935 145.545 211.757 145.553C211.4 145.567 211.038 145.584 210.769 145.593C210.499 145.597 210.32 145.601 210.32 145.601L210.503 154.431C210.503 154.431 210.608 154.431 210.76 154.427C210.838 154.427 210.925 154.427 211.021 154.422C211.117 154.418 211.217 154.414 211.321 154.409C211.731 154.392 212.135 154.379 212.135 154.379C212.135 154.379 212.235 154.375 212.388 154.37C212.466 154.366 212.553 154.366 212.649 154.362C212.745 154.357 212.845 154.353 212.949 154.349C213.354 154.322 213.763 154.296 213.763 154.296C213.763 154.296 214.016 154.279 214.464 154.253C214.686 154.24 214.956 154.214 215.265 154.188C215.574 154.161 215.922 154.127 216.305 154.096C216.401 154.088 216.497 154.079 216.597 154.07C216.697 154.061 216.797 154.048 216.897 154.035C217.102 154.014 217.315 153.988 217.532 153.961C217.75 153.935 217.972 153.909 218.203 153.883C218.259 153.874 218.316 153.87 218.377 153.861C218.433 153.853 218.49 153.844 218.551 153.84C218.668 153.822 218.786 153.805 218.903 153.792C219.138 153.757 219.382 153.727 219.626 153.692C219.748 153.674 219.87 153.657 219.992 153.64C220.052 153.631 220.113 153.622 220.174 153.613C220.235 153.605 220.296 153.592 220.362 153.583C220.858 153.5 221.358 153.418 221.863 153.335C222.864 153.152 223.865 152.965 224.797 152.752C225.032 152.7 225.258 152.652 225.484 152.604C225.511 152.6 225.541 152.591 225.567 152.587C225.593 152.578 225.624 152.574 225.65 152.565C225.706 152.552 225.759 152.539 225.815 152.526C225.924 152.5 226.033 152.474 226.137 152.448C226.564 152.343 226.964 152.248 227.334 152.156C228.074 151.961 228.688 151.795 229.119 151.678C229.545 151.552 229.789 151.482 229.789 151.482C229.789 151.482 229.985 151.426 230.276 151.339C230.424 151.295 230.594 151.247 230.777 151.191C230.96 151.134 231.151 151.073 231.347 151.008C231.735 150.882 232.122 150.76 232.414 150.664C232.557 150.621 232.679 150.573 232.762 150.547C232.844 150.516 232.892 150.499 232.892 150.499L230.046 142.139C230.046 142.139 230.002 142.152 229.928 142.178C229.854 142.204 229.75 142.243 229.619 142.283C229.362 142.365 229.019 142.474 228.679 142.583C228.509 142.639 228.335 142.696 228.174 142.744C228.013 142.791 227.861 142.835 227.735 142.874C227.478 142.948 227.304 143 227.304 143C227.304 143 227.13 143.052 226.873 143.126C226.808 143.144 226.738 143.165 226.664 143.187C226.59 143.209 226.512 143.226 226.429 143.248C226.268 143.292 226.094 143.339 225.92 143.383C225.746 143.431 225.571 143.474 225.41 143.522C225.328 143.544 225.249 143.566 225.175 143.583C225.101 143.605 225.032 143.618 224.966 143.635C224.705 143.701 224.531 143.74 224.531 143.74L223.83 140.882C223.83 140.882 223.935 140.856 224.118 140.812C224.209 140.791 224.318 140.764 224.449 140.734C224.575 140.699 224.718 140.66 224.871 140.621C225.18 140.538 225.545 140.438 225.933 140.334C226.32 140.221 226.729 140.099 227.143 139.977C227.347 139.921 227.552 139.851 227.752 139.786C227.952 139.721 228.152 139.66 228.344 139.594C228.44 139.564 228.536 139.534 228.627 139.503C228.718 139.473 228.81 139.447 228.897 139.416C229.071 139.355 229.236 139.299 229.389 139.246C229.693 139.142 229.946 139.051 230.124 138.99C230.168 138.972 230.207 138.959 230.242 138.951C230.276 138.938 230.307 138.929 230.329 138.916C230.377 138.898 230.403 138.89 230.403 138.89C230.403 138.89 230.803 138.738 231.408 138.511C231.482 138.485 231.56 138.455 231.643 138.424C231.722 138.394 231.809 138.359 231.891 138.324C232.061 138.255 232.244 138.181 232.427 138.107C232.614 138.033 232.805 137.955 233.001 137.876C233.027 137.868 233.049 137.855 233.075 137.846L233.149 137.815C233.197 137.794 233.249 137.772 233.297 137.75C233.397 137.707 233.493 137.667 233.593 137.624C233.789 137.537 233.989 137.454 234.181 137.372C234.276 137.328 234.372 137.289 234.468 137.25C234.564 137.206 234.655 137.163 234.747 137.124C235.112 136.954 235.452 136.798 235.743 136.667C235.778 136.65 235.817 136.632 235.852 136.619C235.887 136.602 235.922 136.584 235.952 136.571C236.017 136.541 236.078 136.51 236.139 136.48C236.257 136.423 236.361 136.371 236.444 136.332C236.614 136.249 236.709 136.202 236.709 136.202L238.011 138.842C238.011 138.842 237.85 138.92 237.606 139.038C237.484 139.099 237.345 139.164 237.193 139.238C237.119 139.277 237.04 139.312 236.958 139.351C236.879 139.39 236.797 139.425 236.714 139.464C236.387 139.612 236.061 139.764 235.817 139.877C235.756 139.908 235.7 139.929 235.652 139.955C235.604 139.977 235.556 139.995 235.521 140.012C235.447 140.042 235.408 140.06 235.408 140.06C235.408 140.06 235.243 140.129 234.995 140.238C234.873 140.29 234.725 140.356 234.572 140.421C234.494 140.456 234.416 140.49 234.333 140.525C234.294 140.543 234.25 140.56 234.211 140.577C234.172 140.595 234.128 140.612 234.085 140.63C233.419 140.899 232.753 141.165 232.753 141.165L235.961 149.39L237.471 148.781C237.471 148.781 237.493 148.772 237.536 148.755C237.558 148.746 237.58 148.737 237.61 148.724C237.641 148.711 237.671 148.698 237.706 148.681C237.845 148.62 238.033 148.542 238.22 148.459C238.594 148.298 238.968 148.137 238.968 148.137C238.968 148.137 239.025 148.111 239.138 148.063C239.247 148.015 239.408 147.941 239.608 147.85C239.808 147.759 240.057 147.646 240.339 147.515C240.479 147.45 240.631 147.38 240.788 147.306C240.827 147.289 240.866 147.272 240.905 147.25C240.944 147.232 240.988 147.211 241.027 147.189C241.11 147.15 241.193 147.106 241.28 147.067C241.623 146.898 241.993 146.719 242.385 146.523C242.485 146.476 242.581 146.423 242.681 146.371C242.781 146.319 242.881 146.267 242.986 146.215C243.19 146.11 243.399 146.001 243.608 145.893C243.713 145.836 243.821 145.784 243.926 145.727C243.978 145.697 244.035 145.671 244.087 145.645C244.139 145.614 244.196 145.584 244.248 145.558C244.461 145.44 244.679 145.319 244.901 145.201C245.118 145.079 245.34 144.958 245.562 144.836C245.676 144.775 245.784 144.71 245.893 144.649C246.002 144.583 246.115 144.523 246.224 144.457C246.446 144.331 246.664 144.201 246.881 144.075C246.99 144.009 247.099 143.948 247.208 143.883C247.316 143.818 247.421 143.753 247.53 143.687C247.956 143.426 248.379 143.17 248.783 142.918C249.184 142.661 249.571 142.409 249.937 142.169C250.028 142.109 250.119 142.052 250.207 141.991C250.294 141.935 250.381 141.874 250.468 141.817C250.637 141.7 250.803 141.591 250.96 141.482C251.116 141.373 251.269 141.273 251.412 141.173C251.486 141.125 251.556 141.078 251.621 141.03C251.656 141.008 251.691 140.982 251.721 140.96C251.756 140.938 251.786 140.912 251.817 140.891C252.069 140.712 252.287 140.551 252.47 140.425C252.831 140.164 253.04 140.016 253.04 140.016C253.04 140.016 253.044 140.012 253.049 140.008L251.29 137.602Z" fill="white"/>
<path d="M204.223 118.303C203.826 118.303 203.504 118.42 203.265 118.672C203.026 118.925 202.908 119.294 202.908 119.786L202.934 120.195C202.934 121.165 203.4 121.639 204.34 121.639C204.749 121.639 205.15 121.561 205.533 121.387V119.795C205.533 119.303 205.415 118.933 205.176 118.681C204.941 118.438 204.623 118.303 204.223 118.303Z" fill="white"/>
<path d="M211.308 121.935C210.895 121.935 210.499 122.013 210.116 122.187V123.779C210.116 124.27 210.233 124.64 210.473 124.892C210.712 125.145 211.03 125.262 211.426 125.262C211.822 125.262 212.144 125.132 212.383 124.879C212.623 124.627 212.74 124.257 212.74 123.766L212.714 123.383C212.714 122.413 212.248 121.935 211.308 121.935Z" fill="white"/>
<path d="M180.506 47.0331C180.506 47.0331 192.332 37.503 208.88 37.4508C208.884 37.4508 208.888 37.4508 208.893 37.4508C208.897 37.4508 208.901 37.4508 208.906 37.4508C225.454 37.503 237.28 47.0331 237.28 47.0331L238.929 44.8409C237.345 43.3272 233.523 41.1132 233.523 41.1132L235.604 33.61L233.227 32.4356L229.11 38.921C224.792 36.7983 218.934 35.5978 218.934 35.5978L219.295 28.0033L216.627 27.4596L214.207 34.8279C211.287 34.5408 209.402 34.5626 208.897 34.5756C208.893 34.5756 208.888 34.5756 208.884 34.5756C208.88 34.5756 208.875 34.5756 208.871 34.5756C208.37 34.5626 206.481 34.5408 203.561 34.8279L201.141 27.4596L198.473 28.0033L198.834 35.5978C198.834 35.5978 192.976 36.794 188.658 38.921L184.541 32.4356L182.164 33.61L184.245 41.1132C184.245 41.1132 180.423 43.3272 178.839 44.8409L180.506 47.0331Z" fill="white"/>
<path d="M208.91 40.1128C208.906 40.1128 208.901 40.1128 208.897 40.1128C208.893 40.1128 208.888 40.1128 208.884 40.1128C207.718 40.0693 194.913 39.8257 182.173 49.134L182.512 49.4733H186.551C186.551 49.4733 196.445 42.9444 208.888 42.8966C208.893 42.8966 208.897 42.8966 208.901 42.8966C208.906 42.8966 208.91 42.8966 208.914 42.8966C221.354 42.9444 231.251 49.4733 231.251 49.4733H235.291L235.63 49.134C222.882 39.8257 210.077 40.0693 208.91 40.1128Z" fill="white"/>
<path d="M267.582 104.153C265.984 107.924 264.008 111.561 261.71 114.966C259.429 118.337 256.814 121.504 253.932 124.388C252.326 125.993 250.633 127.515 248.862 128.942L248.457 128.19C262.672 116.659 271.773 99.064 271.773 79.3817C271.773 44.7321 243.565 16.5462 208.897 16.5462C174.225 16.5462 146.021 44.7321 146.021 79.3817C146.021 99.051 155.109 116.632 169.307 128.163L168.902 128.916C167.144 127.498 165.459 125.984 163.862 124.388C160.981 121.508 158.365 118.337 156.084 114.966C153.786 111.565 151.81 107.924 150.212 104.153C148.585 100.312 147.34 96.2933 146.5 92.2046C145.642 88.0115 145.207 83.6966 145.207 79.3774C145.207 75.0581 145.642 70.7433 146.5 66.5502C147.335 62.4615 148.585 58.4424 150.212 54.6016C151.81 50.8304 153.786 47.1941 156.084 43.7883C158.365 40.4173 160.981 37.2507 163.862 34.3712C166.743 31.4917 169.916 28.8776 173.289 26.5983C176.693 24.2973 180.336 22.3269 184.11 20.7306C187.953 19.1082 191.975 17.8598 196.066 17.0203C200.262 16.1634 204.579 15.7285 208.901 15.7285C213.223 15.7285 217.541 16.1634 221.737 17.0203C225.824 17.8555 229.85 19.1038 233.693 20.7306C237.467 22.3269 241.105 24.3017 244.513 26.5983C247.887 28.8732 251.055 31.4917 253.941 34.3712C256.822 37.2507 259.438 40.4216 261.719 43.7883C264.017 47.1897 265.993 50.8304 267.59 54.6016C269.218 58.4424 270.467 62.4615 271.303 66.5502C272.16 70.7433 272.596 75.0581 272.596 79.3774C272.596 83.6966 272.16 88.0115 271.303 92.2046C270.454 96.2889 269.205 100.312 267.582 104.153ZM178.978 32.5574L185.472 29.3212L190.168 35.4238C191.269 34.8975 195.648 33.5448 195.648 33.5448L195.378 25.7458L203.195 24.2364L205.842 31.931C207.113 31.8527 208.653 31.831 208.875 31.831C208.875 31.831 208.88 31.831 208.888 31.831C208.897 31.831 208.901 31.831 208.901 31.831C209.123 31.8353 210.664 31.8527 211.935 31.931L214.581 24.2364L222.398 25.7458L222.129 33.5448C222.129 33.5448 226.503 34.9019 227.608 35.4238L232.305 29.3212L238.803 32.5574L236.918 40.0823C236.918 40.0823 241.092 42.7443 242.855 44.506L236.479 51.8961H229.837C229.837 51.8961 220.849 45.6804 208.893 45.676C196.936 45.6804 187.949 51.8961 187.949 51.8961H181.298L174.922 44.506C176.684 42.7443 180.858 40.0823 180.858 40.0823L178.978 32.5574ZM221.593 108.799C219.239 108.799 214.242 108.799 212.436 108.799V102.257C212.436 99.8209 213.267 97.7939 214.904 96.2368C215.691 95.4843 216.671 94.8362 217.82 94.3098C218.956 93.7879 220.27 93.379 221.724 93.0919C223.165 92.8092 226.359 92.2394 230.481 91.4739L231.021 91.3651V65.254L230.224 65.4105C226.673 66.1108 221.981 67.0373 219.813 67.4679C216.501 68.1247 214.172 68.5815 212.897 68.8294C210.908 69.2165 210.185 70.4866 210.116 72.1439V108.794H207.687V72.2265C207.657 70.5301 206.934 69.2296 204.906 68.8337C203.626 68.5858 201.302 68.1247 197.99 67.4679C196.288 67.1287 192.784 66.4371 187.579 65.4105L186.782 65.254V91.3651L187.322 91.4739C191.383 92.2177 194.63 92.8092 196.079 93.0919C197.533 93.3747 198.847 93.7879 199.983 94.3098C201.132 94.8362 202.112 95.4843 202.899 96.2368C204.536 97.7983 205.367 99.8252 205.367 102.257V108.799C203.561 108.799 198.564 108.799 196.21 108.799H170.965V58.3293H176.654V103.114H196.21C197.015 103.114 198.991 103.109 199.008 103.109H199.665L199.674 102.452C199.674 102.448 199.674 102.352 199.674 102.257C199.674 100.53 198.395 99.2032 196.331 98.8031C195.039 98.5508 192.723 98.0549 189.415 97.4373C186.282 96.8544 182.351 96.1454 181.089 95.8975V58.4728L206.299 63.4314C207.335 63.6359 208.022 63.8447 208.592 64.1404L208.901 64.297L209.206 64.1404C209.776 63.8447 210.464 63.6315 211.5 63.4314C214.795 62.7877 232.692 59.2644 236.709 58.4728V95.8931C235.447 96.1454 231.608 96.7935 228.383 97.4329C225.08 98.0854 222.751 98.5464 221.467 98.7987C219.408 99.1989 218.124 100.526 218.124 102.252C218.124 102.348 218.124 102.444 218.124 102.448L218.133 103.105H218.79C218.808 103.105 220.784 103.109 221.589 103.109H241.145V58.3293H246.833V108.799H221.593ZM233.04 122.548H224.601V121.669H233.04V122.548ZM220.74 119.986C220.74 120.704 220.579 121.3 220.261 121.765C219.944 122.23 219.439 122.613 218.734 122.918C218.016 123.222 217.541 123.501 217.289 123.753C217.036 124.005 216.919 124.323 216.919 124.705V125.088H220.314C220.592 125.088 220.74 125.314 220.74 125.762C220.74 126.215 220.592 126.437 220.314 126.437H215.818C215.487 126.437 215.326 126.263 215.326 125.906V125.084C215.326 124.223 215.487 123.557 215.791 123.096C216.096 122.631 216.666 122.222 217.489 121.865C218.15 121.587 218.603 121.308 218.829 121.043C219.056 120.778 219.173 120.408 219.173 119.943L219.134 119.503C219.134 119.107 219.03 118.803 218.816 118.603C218.603 118.403 218.325 118.298 217.968 118.298C217.611 118.298 217.332 118.403 217.119 118.603C216.906 118.803 216.801 119.107 216.801 119.503V119.677C216.801 120.008 216.536 120.169 216.005 120.169C215.474 120.169 215.208 120.008 215.208 119.677V119.451C215.208 118.777 215.461 118.19 215.952 117.689C216.444 117.185 217.106 116.933 217.942 116.933C218.816 116.933 219.508 117.172 219.996 117.663C220.488 118.155 220.74 118.777 220.74 119.534V119.986ZM214.268 123.818C214.268 124.692 214.003 125.384 213.458 125.871C212.914 126.363 212.227 126.615 211.374 126.615C210.525 126.615 209.833 126.363 209.289 125.871C208.745 125.38 208.479 124.692 208.479 123.818V119.564C208.479 118.794 208.732 118.172 209.237 117.694C209.741 117.215 210.429 116.976 211.321 116.976C212.17 116.976 212.849 117.215 213.337 117.694C213.828 118.172 214.081 118.742 214.081 119.416V119.508C214.081 119.838 213.815 119.999 213.284 119.999C212.753 119.999 212.488 119.838 212.488 119.508V119.468C212.488 119.138 212.37 118.859 212.144 118.646C211.918 118.433 211.626 118.329 211.282 118.329C210.951 118.329 210.673 118.433 210.447 118.646C210.22 118.859 210.103 119.125 210.103 119.455V120.847C210.529 120.673 210.991 120.582 211.509 120.582C212.344 120.582 213.019 120.821 213.537 121.313C214.055 121.804 214.307 122.491 214.307 123.379L214.268 123.818ZM207.143 123.766C207.143 124.627 206.891 125.319 206.373 125.836C205.855 126.354 205.141 126.619 204.223 126.619L204.209 126.632C203.147 126.632 202.312 126.289 201.702 125.61C201.572 125.462 201.502 125.319 201.502 125.171C201.502 124.997 201.594 124.827 201.781 124.653C201.968 124.479 202.151 124.401 202.325 124.401C202.455 124.401 202.577 124.453 202.669 124.562C203.108 125.04 203.609 125.28 204.179 125.28C204.619 125.28 204.962 125.158 205.202 124.923C205.441 124.684 205.559 124.34 205.559 123.888V122.761C205.132 122.935 204.671 123.026 204.153 123.026C203.317 123.026 202.643 122.774 202.125 122.283C201.607 121.791 201.354 121.104 201.354 120.217V119.777C201.354 118.903 201.62 118.211 202.164 117.724C202.708 117.233 203.396 116.98 204.244 116.98C205.093 116.98 205.785 117.233 206.329 117.724C206.873 118.216 207.139 118.903 207.139 119.777V123.766H207.143ZM199.182 126.563C198.651 126.563 198.386 126.402 198.386 126.071V118.594L196.597 118.833C196.449 118.846 196.331 118.807 196.24 118.716C196.149 118.625 196.092 118.464 196.066 118.224C196.001 117.759 196.105 117.507 196.384 117.468L198.203 117.202C198.599 117.137 198.986 117.111 199.356 117.111C199.766 117.111 199.966 117.285 199.966 117.615L199.979 126.076C199.979 126.406 199.713 126.563 199.182 126.563ZM184.702 122.548V121.669H193.141V122.548H184.702ZM208.897 13.4449C172.462 13.4449 142.922 42.9618 142.922 79.3774C142.922 103.192 155.557 124.057 174.495 135.645L178.804 127.807L181.655 129.494L181.659 129.499L181.92 129.638L182.708 130.056C182.739 130.073 182.769 130.086 182.8 130.103C182.821 130.116 182.852 130.129 182.869 130.138L183.013 130.212L184.057 130.734L184.079 130.743L184.092 130.751C184.114 130.76 184.162 130.786 184.201 130.804C184.223 130.812 184.249 130.825 184.271 130.838L184.484 130.939L184.649 131.017L185.098 131.226C185.132 131.243 185.167 131.256 185.198 131.273C185.302 131.321 185.402 131.369 185.485 131.404L185.52 131.421L186.582 131.891C186.691 131.935 186.799 131.978 186.904 132.026C187.513 132.278 188.083 132.513 188.506 132.67L188.549 132.687L188.863 132.809L189.241 132.952L189.259 132.961L189.272 132.965C189.285 132.97 189.293 132.974 189.302 132.974C189.324 132.983 189.346 132.987 189.363 132.996L189.428 133.018L190.39 133.357H190.399L190.617 133.435C190.63 133.44 190.66 133.448 190.682 133.457C190.717 133.466 190.752 133.479 190.786 133.492L190.978 133.553L191.304 133.657H191.309L191.348 133.67L191.87 133.84L191.97 133.875L192.075 133.909L192.227 133.953L192.366 133.996L192.501 134.036L192.95 134.17L193.128 134.223L193.237 134.257L193.276 134.27L193.333 134.288L193.415 134.31L193.428 134.314L193.907 134.444L194.438 134.588H194.447L194.647 134.64L194.66 134.644L194.708 134.658L194.717 134.662L194.765 134.675L194.843 134.692L195.078 134.749L195.352 134.814L195.748 134.91L196.114 135.001L196.462 135.075L196.54 135.092L197.42 135.284H197.424L197.546 135.31L197.628 135.327L197.737 135.349L199.008 135.588L200.244 135.793L200.357 135.81L200.375 135.815L200.44 135.823L200.488 135.832L200.562 135.841L201.454 135.962L201.859 136.019L201.885 136.023L201.903 136.028L202.26 136.067L202.664 136.11L202.943 136.141L203.139 136.163L203.261 136.176L203.313 136.18L203.352 136.184H203.374L203.596 136.202L204.64 136.293H204.645L204.701 136.297L204.745 136.302L204.845 136.306L205.015 136.315L205.145 136.323L205.332 136.336L205.755 136.363L205.937 136.376L206.064 136.384L206.155 136.389H206.19L206.277 136.393L206.869 136.415H206.873L207.169 136.423L207.417 136.432C207.456 136.432 207.496 136.437 207.53 136.437C207.557 136.437 207.587 136.441 207.6 136.441H207.844L208.867 136.45H208.932C208.954 136.45 208.975 136.45 208.997 136.45C209.006 136.45 209.015 136.45 209.028 136.45H209.163L209.798 136.441H209.842C210.29 136.441 210.908 136.415 211.565 136.384C211.683 136.38 211.8 136.376 211.918 136.371L212.47 136.336L213.08 136.297H213.123C213.21 136.293 213.324 136.284 213.441 136.271C213.48 136.267 213.515 136.263 213.554 136.263L213.828 136.236L214.255 136.202L214.46 136.184C214.486 136.18 214.512 136.18 214.534 136.176C214.573 136.171 214.629 136.167 214.651 136.167L214.668 136.163L214.69 136.158L214.969 136.128L215.374 136.08L215.456 136.071L215.787 136.032L215.878 136.023L216.005 136.01C216.022 136.006 216.057 136.002 216.083 136.002C216.118 135.997 216.153 135.993 216.187 135.989L217.071 135.862H217.08L217.371 135.823H217.38L220.636 135.214V135.227L221.093 135.127H221.097L221.158 135.114L221.319 135.079C221.354 135.071 221.393 135.062 221.428 135.058C221.437 135.058 221.445 135.053 221.454 135.053L221.476 135.049L221.706 134.992L221.885 134.949L222.281 134.853L222.546 134.788C222.581 134.779 222.62 134.771 222.66 134.762C222.712 134.749 222.76 134.74 222.808 134.727L223.073 134.658L223.191 134.627L223.778 134.47L224.166 134.366L225.28 134.04L225.323 134.031C225.41 134.005 225.524 133.97 225.645 133.931C225.693 133.914 225.746 133.896 225.793 133.883L226.329 133.709L226.351 133.705L226.612 133.618C226.633 133.609 226.66 133.605 226.681 133.596C226.707 133.587 226.747 133.574 226.76 133.57L226.773 133.566L226.79 133.557L227.021 133.479L227.578 133.283L227.957 133.153L228.026 133.126H228.031L228.048 133.122L228.074 133.113L228.144 133.087L229.101 132.726H229.106L229.245 132.674L229.31 132.652C229.332 132.644 229.362 132.631 229.393 132.618C229.428 132.604 229.463 132.591 229.497 132.574L230.002 132.37L230.12 132.322L230.551 132.148L230.612 132.122L230.668 132.1L230.751 132.065L230.925 131.991L231.034 131.943L231.399 131.787L231.595 131.704L231.782 131.626L231.83 131.604L231.891 131.578L232.057 131.5H232.061L233.014 131.06L233.084 131.026L233.14 130.999L233.21 130.965L233.319 130.912L233.432 130.856L233.611 130.769L233.863 130.647L234.229 130.469L234.272 130.451C234.294 130.438 234.355 130.408 234.394 130.386C234.437 130.364 234.485 130.338 234.533 130.312L234.786 130.182L234.947 130.095C235.042 130.042 235.134 129.995 235.225 129.951C235.386 129.869 235.547 129.786 235.634 129.734L235.678 129.708L236.035 129.512L238.886 127.942L243.156 135.71C262.115 124.127 274.768 103.248 274.768 79.4165C274.872 42.9618 245.332 13.4449 208.897 13.4449Z" fill="white"/>
</g>
<path d="M417 216.448C417 195.755 393.424 186.367 375.284 196.324C325.592 223.602 268.511 239.118 207.802 239.118C147.306 239.118 90.4137 223.711 40.8445 196.612C23.0582 186.889 0 196.177 0 216.448C0 331.445 93.3486 424.669 208.5 424.669C323.651 424.669 417 331.445 417 216.448Z" fill="#028092"/>
<path d="M345.64 210.809C303.369 229.025 256.766 239.118 207.802 239.118C159.368 239.118 113.243 229.243 71.3377 211.398C71.2769 213.073 71.2463 214.757 71.2463 216.448C71.2463 292.15 132.697 353.518 208.5 353.518C284.303 353.518 345.754 292.15 345.754 216.448C345.754 214.559 345.716 212.679 345.64 210.809Z" fill="#138C9D"/>
<defs>
<clipPath id="clip0_229_1317">
<rect width="158.857" height="158.755" fill="white" transform="translate(129.469)"/>
</clipPath>
</defs>
</svg>
