<svg width="40" height="41" viewBox="0 0 40 41" fill="none" xmlns="http://www.w3.org/2000/svg">
<path d="M31.2808 35.5556C31.2585 35.5734 31.2183 35.6002 31.1602 35.6404C31.1424 35.6538 31.1245 35.6672 31.1022 35.6806C31.0709 35.703 31.0396 35.7253 31.0128 35.7432C31.0039 35.7476 30.9994 35.7521 30.9905 35.7566C30.9816 35.761 30.9726 35.77 30.9682 35.7744C30.9592 35.7789 30.9503 35.7878 30.9414 35.7923C30.9235 35.8057 30.9056 35.8146 30.8878 35.828C30.852 35.8548 30.8118 35.8816 30.7716 35.9084C30.7314 35.9352 30.6912 35.9665 30.6466 35.9933C30.6242 36.0067 30.6019 36.0246 30.5796 36.038C30.5572 36.0514 30.5349 36.0692 30.5081 36.0826C30.4143 36.1452 30.316 36.2077 30.2133 36.2747C30.1105 36.3372 30.0033 36.4042 29.8917 36.4712C29.8649 36.4891 29.8381 36.507 29.8113 36.5204C29.7845 36.5382 29.7532 36.5516 29.7264 36.5695C29.6683 36.6008 29.6147 36.6365 29.5567 36.6678C29.5299 36.6856 29.4986 36.6991 29.4718 36.7169C29.445 36.7348 29.4137 36.7482 29.3869 36.7661C29.3289 36.7973 29.2753 36.8286 29.2172 36.8599C29.1591 36.8911 29.1055 36.9224 29.0519 36.9537C29.0385 36.9626 29.0251 36.9671 29.0117 36.976C28.9983 36.9849 28.9849 36.9894 28.9715 36.9983C28.9447 37.0117 28.9179 37.0251 28.8911 37.0385C28.8375 37.0653 28.7839 37.0966 28.7303 37.1234C28.7035 37.1368 28.6767 37.1502 28.6544 37.1636C28.6276 37.177 28.6052 37.1904 28.5784 37.2038C28.4757 37.2529 28.3819 37.3021 28.2926 37.3423C28.2702 37.3512 28.2479 37.3646 28.23 37.3735C28.2211 37.378 28.2077 37.3825 28.1988 37.3869C28.1898 37.3914 28.1764 37.3959 28.1675 37.4003C28.1273 37.4182 28.0871 37.4361 28.0514 37.4539C27.9799 37.4897 27.9174 37.5165 27.8638 37.5388C27.8102 37.5611 27.77 37.5835 27.7432 37.5924C27.7164 37.6058 27.6985 37.6103 27.6985 37.6103L27.3813 36.8911C27.3813 36.8911 27.3903 36.8867 27.4126 36.8777C27.4216 36.8733 27.435 36.8688 27.4484 36.8599C27.4618 36.8554 27.4796 36.8465 27.493 36.8375C27.56 36.8063 27.6538 36.7661 27.7432 36.7214C27.7655 36.7125 27.7878 36.6991 27.8102 36.6901C27.8325 36.6812 27.8548 36.6678 27.8772 36.6588C27.9174 36.6365 27.9576 36.6186 27.9933 36.6008C28.0603 36.5695 28.105 36.5472 28.105 36.5472C28.105 36.5472 28.1496 36.5248 28.2166 36.4936C28.2524 36.4757 28.2881 36.4578 28.3328 36.4355C28.373 36.4132 28.4176 36.3908 28.4623 36.3685C28.5516 36.3238 28.641 36.2747 28.7035 36.239C28.7705 36.2032 28.8152 36.1764 28.8152 36.1764L27.6762 34.1128C27.6762 34.1128 27.636 34.1351 27.5824 34.1664C27.5243 34.1977 27.4484 34.2379 27.3679 34.2781C27.3277 34.2959 27.292 34.3183 27.2518 34.3361C27.2161 34.354 27.1803 34.3719 27.1535 34.3853C27.0955 34.4121 27.0553 34.4344 27.0553 34.4344C27.0553 34.4344 27.0329 34.4478 26.9883 34.4657C26.9659 34.4746 26.9391 34.488 26.9123 34.5014C26.8989 34.5103 26.8811 34.5148 26.8632 34.5237C26.8543 34.5282 26.8453 34.5327 26.8364 34.5371C26.8275 34.5416 26.8185 34.5461 26.8096 34.5505C26.7337 34.5863 26.6488 34.6265 26.555 34.6667C26.5327 34.6756 26.5103 34.689 26.4835 34.6979C26.4612 34.7069 26.4344 34.7203 26.4121 34.7292C26.3629 34.7515 26.3138 34.7739 26.2647 34.7917C26.2379 34.8007 26.2155 34.8141 26.1887 34.823C26.1753 34.8275 26.1664 34.8319 26.153 34.8409L26.1351 34.8498C26.1307 34.8543 26.1217 34.8543 26.1173 34.8587C26.0681 34.8811 26.019 34.8989 25.9698 34.9168C25.9207 34.9347 25.876 34.9525 25.8358 34.9704C25.8135 34.9793 25.7912 34.9883 25.7733 34.9972C25.751 35.0061 25.7331 35.0106 25.7152 35.0195C25.5634 35.0776 25.4606 35.1133 25.4606 35.1133C25.4606 35.1133 25.4562 35.1178 25.4428 35.1223C25.4383 35.1267 25.4294 35.1267 25.4204 35.1312C25.4115 35.1357 25.4026 35.1357 25.3892 35.1401C25.3445 35.158 25.282 35.1759 25.2016 35.2027C25.1614 35.2161 25.1212 35.2295 25.0765 35.2473C25.0542 35.2563 25.0318 35.2607 25.0095 35.2697C24.9872 35.2786 24.9604 35.2831 24.938 35.292C24.8889 35.3099 24.8398 35.3233 24.7862 35.3412C24.737 35.359 24.6834 35.3769 24.6298 35.3903C24.5271 35.4216 24.4199 35.4528 24.3216 35.4796C24.2233 35.5064 24.1295 35.5288 24.0536 35.5511C24.0134 35.56 23.9777 35.5734 23.9464 35.5824C23.9151 35.5913 23.8883 35.5958 23.8615 35.6047C23.8169 35.6136 23.7901 35.6226 23.7901 35.6226C23.7901 35.6226 23.7454 35.6315 23.6829 35.6494C23.6516 35.6583 23.6159 35.6672 23.5757 35.6762C23.5578 35.6806 23.5355 35.6851 23.5131 35.6896C23.4908 35.694 23.4685 35.6985 23.4506 35.703C23.3746 35.7342 23.2898 35.7521 23.2272 35.77C23.2138 35.7744 23.196 35.7789 23.1826 35.7789C23.1692 35.7834 23.1602 35.7834 23.1468 35.7834C23.129 35.7878 23.1156 35.7878 23.1156 35.7878L23.2674 36.5606L23.5712 38.0972C23.5712 38.0972 23.5935 38.0927 23.6382 38.0838C23.6829 38.0748 23.7409 38.0614 23.8169 38.048C23.8883 38.0302 23.9777 38.0123 24.067 37.9944C24.0893 37.9899 24.1117 37.9855 24.134 37.9765C24.1563 37.9721 24.1831 37.9676 24.2055 37.9587C24.2546 37.9453 24.3037 37.9363 24.3484 37.9229C24.3975 37.9095 24.4467 37.9006 24.4913 37.8872C24.5137 37.8827 24.5405 37.8738 24.5628 37.8693C24.5851 37.8649 24.6075 37.8559 24.6298 37.8515C24.7191 37.8247 24.804 37.8023 24.8755 37.7845C24.947 37.7666 25.0095 37.7487 25.0497 37.7353C25.0899 37.7219 25.1167 37.7175 25.1167 37.7175L25.3356 38.4724C25.3356 38.4724 25.273 38.4902 25.1614 38.5215C25.0497 38.5528 24.8934 38.593 24.7057 38.6421C24.6119 38.6644 24.5092 38.6912 24.3975 38.718C24.3707 38.7225 24.3439 38.7314 24.3127 38.7359C24.2993 38.7404 24.2859 38.7448 24.2725 38.7448C24.2635 38.7448 24.2591 38.7493 24.2501 38.7493C24.2412 38.7493 24.2367 38.7538 24.2278 38.7538C24.1697 38.7672 24.1117 38.7806 24.0536 38.794C23.8169 38.8476 23.5578 38.8967 23.3032 38.9414C22.7895 39.0352 22.2714 39.0977 21.8827 39.1379C21.7845 39.1468 21.6951 39.1558 21.6147 39.1602C21.5343 39.1692 21.4673 39.1736 21.4093 39.1781C21.2931 39.187 21.2306 39.1915 21.2306 39.1915L21.1815 38.4098C21.1815 38.4098 21.2306 38.4054 21.3065 38.4009C21.3244 38.4009 21.3467 38.3964 21.3691 38.3964C21.3914 38.3964 21.4137 38.392 21.4361 38.392C21.4807 38.3875 21.5343 38.383 21.5835 38.3786C21.6817 38.3696 21.7845 38.3607 21.8559 38.3562C21.9319 38.3473 21.981 38.3428 21.981 38.3428C21.981 38.3428 22.0301 38.3384 22.1061 38.3294C22.1418 38.325 22.1865 38.3205 22.2356 38.316C22.258 38.3116 22.2848 38.3116 22.3071 38.3071C22.3294 38.3026 22.3562 38.3026 22.383 38.2982C22.4813 38.2848 22.5796 38.2714 22.6555 38.258C22.6912 38.2535 22.7225 38.249 22.7448 38.2446C22.7672 38.2401 22.7806 38.2401 22.7806 38.2401L22.4188 35.9084C22.4188 35.9084 22.4098 35.9129 22.3875 35.9129C22.3696 35.9174 22.3428 35.9174 22.3071 35.9218C22.2446 35.9308 22.1552 35.9442 22.0704 35.9531C22.048 35.9576 22.0257 35.9576 22.0078 35.962C21.9855 35.9665 21.9676 35.9665 21.9453 35.971C21.9051 35.9754 21.8693 35.9799 21.8336 35.9844C21.7711 35.9933 21.7264 35.9978 21.7264 35.9978C21.7264 35.9978 21.6996 36.0022 21.6505 36.0067C21.6281 36.0112 21.5969 36.0112 21.5656 36.0156C21.5343 36.0201 21.4941 36.0201 21.4539 36.0246C21.4137 36.029 21.3691 36.0335 21.3244 36.038C21.2753 36.0424 21.2306 36.0469 21.177 36.0514C21.0743 36.0603 20.9671 36.0648 20.8599 36.0737C20.641 36.0826 20.4221 36.0916 20.2613 36.0916C20.1809 36.0916 20.1139 36.096 20.0648 36.096C20.0424 36.096 20.0201 36.096 20.0112 36.096C19.9978 36.096 19.9933 36.096 19.9933 36.096C19.9933 36.096 19.8861 36.096 19.7208 36.0916C19.6985 36.0916 19.6806 36.0916 19.6583 36.0916C19.636 36.0916 19.6136 36.0916 19.5913 36.0871C19.5466 36.0871 19.4975 36.0826 19.4439 36.0826C19.3948 36.0826 19.3411 36.0782 19.2875 36.0782C19.2741 36.0782 19.2607 36.0782 19.2473 36.0782C19.2339 36.0782 19.2205 36.0782 19.2071 36.0737C19.1803 36.0737 19.1535 36.0692 19.1267 36.0692C19.0731 36.0648 19.0195 36.0648 18.9659 36.0603C18.9391 36.0603 18.9123 36.0558 18.8855 36.0558C18.8721 36.0558 18.8587 36.0558 18.8453 36.0514C18.8319 36.0514 18.8185 36.0469 18.8051 36.0469C18.7024 36.038 18.6086 36.029 18.5282 36.0246C18.5059 36.0246 18.488 36.0201 18.4701 36.0201C18.4612 36.0201 18.4523 36.0201 18.4433 36.0156C18.4344 36.0156 18.4255 36.0156 18.4165 36.0112C18.3853 36.0067 18.354 36.0022 18.3317 36.0022C18.2825 35.9978 18.2557 35.9933 18.2557 35.9933C18.2557 35.9933 18.2111 35.9888 18.1485 35.9799C18.1173 35.9754 18.0771 35.971 18.0368 35.9665C17.9966 35.962 17.952 35.9531 17.9073 35.9486C17.8224 35.9352 17.7331 35.9263 17.6706 35.9174C17.6527 35.9129 17.6393 35.9129 17.6259 35.9129C17.6125 35.9084 17.6036 35.9084 17.5902 35.9084C17.5723 35.904 17.5589 35.904 17.5589 35.904L17.3177 37.4584L17.2552 37.847L17.1971 38.2356C17.1971 38.2356 17.2194 38.2401 17.2641 38.249C17.3088 38.2535 17.3713 38.2624 17.4428 38.2758C17.5187 38.2848 17.6036 38.2982 17.6974 38.3116C17.7108 38.3116 17.7197 38.316 17.7331 38.316C17.7465 38.316 17.7554 38.3205 17.7688 38.3205C17.7912 38.325 17.818 38.325 17.8403 38.3294C17.8894 38.3339 17.9386 38.3384 17.9877 38.3473C18.0368 38.3518 18.086 38.3562 18.1351 38.3652C18.1575 38.3696 18.1843 38.3696 18.2066 38.3741C18.2289 38.3786 18.2557 38.3786 18.2781 38.3786C18.3719 38.3875 18.4567 38.3964 18.5327 38.4009C18.6086 38.4054 18.6711 38.4143 18.7113 38.4143C18.756 38.4188 18.7783 38.4188 18.7783 38.4188L18.7247 39.2004C18.7247 39.2004 18.7069 39.2004 18.6801 39.196C18.6488 39.196 18.6041 39.1915 18.5461 39.187C18.488 39.1826 18.421 39.1781 18.3406 39.1692C18.3004 39.1647 18.2602 39.1602 18.2155 39.1558C18.1932 39.1558 18.1709 39.1513 18.1485 39.1513C18.1351 39.1513 18.1262 39.1513 18.1128 39.1468C18.0994 39.1468 18.0905 39.1424 18.0771 39.1424C17.6884 39.1022 17.1703 39.0352 16.6566 38.9458C16.1429 38.8565 15.6337 38.7404 15.254 38.6466C15.2406 38.6421 15.2317 38.6421 15.2183 38.6376C15.2049 38.6332 15.196 38.6332 15.1826 38.6287C15.1602 38.6242 15.1379 38.6153 15.1156 38.6108C15.0709 38.5974 15.0307 38.5885 14.995 38.5796C14.919 38.5572 14.852 38.5394 14.7984 38.526C14.7448 38.5126 14.7002 38.4992 14.6734 38.4902C14.6421 38.4813 14.6287 38.4768 14.6287 38.4768L14.8476 37.7219C14.8476 37.7219 14.8967 37.7353 14.9682 37.7577C15.0396 37.7755 15.1379 37.8023 15.2317 37.8291C15.2808 37.8425 15.33 37.8559 15.3746 37.8649C15.4193 37.8783 15.464 37.8872 15.4997 37.8961C15.5712 37.914 15.6203 37.9274 15.6203 37.9274C15.6203 37.9274 15.6695 37.9408 15.7409 37.9587C15.7767 37.9676 15.8213 37.9766 15.866 37.99C15.9107 37.9989 15.9598 38.0123 16.0089 38.0212C16.1072 38.0436 16.2055 38.0614 16.2769 38.0793C16.2948 38.0838 16.3127 38.0882 16.3261 38.0882C16.3395 38.0927 16.3529 38.0927 16.3663 38.0972C16.3886 38.1016 16.402 38.1061 16.402 38.1061L16.5539 37.3378L16.7058 36.565L16.8576 35.7968C16.8576 35.7968 16.8487 35.7968 16.8264 35.7923C16.8174 35.7923 16.804 35.7878 16.7906 35.7834C16.7772 35.7789 16.7638 35.7789 16.746 35.7744C16.6834 35.761 16.5985 35.7432 16.5137 35.7253C16.469 35.7164 16.4288 35.7074 16.3886 35.6985C16.3484 35.6896 16.3127 35.6806 16.2814 35.6717C16.2189 35.6538 16.1742 35.6449 16.1742 35.6449C16.1742 35.6449 16.1474 35.6404 16.1027 35.627C16.0804 35.6226 16.0491 35.6136 16.0179 35.6047C16.0089 35.6047 16 35.6002 15.9955 35.6002C15.9866 35.5958 15.9777 35.5958 15.9687 35.5913C15.9509 35.5868 15.933 35.5824 15.9107 35.5779C15.8303 35.5556 15.7409 35.5332 15.6427 35.5064C15.6293 35.502 15.6159 35.4975 15.6069 35.4975C15.5935 35.493 15.5801 35.4886 15.5712 35.4886C15.5444 35.4796 15.5221 35.4752 15.4953 35.4662C15.4461 35.4528 15.3925 35.435 15.3389 35.4216C15.3121 35.4126 15.2853 35.4082 15.2585 35.3992C15.2451 35.3948 15.2317 35.3903 15.2183 35.3858C15.2049 35.3814 15.1915 35.3769 15.1781 35.3724C15.1245 35.3546 15.0754 35.3412 15.0262 35.3233C14.9771 35.3099 14.9324 35.292 14.8878 35.2786C14.8654 35.2697 14.8431 35.2652 14.8252 35.2563C14.8029 35.2473 14.785 35.2429 14.7627 35.2339C14.6064 35.1803 14.5081 35.1446 14.5081 35.1446C14.5081 35.1446 14.5036 35.1401 14.4902 35.1401C14.4768 35.1357 14.459 35.1312 14.4366 35.1223C14.392 35.1044 14.3294 35.0821 14.2535 35.0508C14.1016 34.9927 13.9006 34.9079 13.6996 34.8275C13.6013 34.7828 13.4986 34.7381 13.4093 34.6979C13.3601 34.6756 13.3155 34.6577 13.2753 34.6354C13.2351 34.6175 13.1949 34.5952 13.1547 34.5773C13.1145 34.5595 13.0832 34.5416 13.0519 34.5282C13.0207 34.5148 12.9939 34.5014 12.976 34.4925C12.9313 34.4701 12.909 34.4567 12.909 34.4567C12.909 34.4567 12.8688 34.4389 12.8107 34.4076C12.7795 34.3942 12.7482 34.3763 12.7125 34.3585C12.6946 34.3495 12.6767 34.3406 12.6544 34.3317C12.6365 34.3227 12.6142 34.3093 12.5963 34.3004C12.5204 34.2602 12.4444 34.22 12.3864 34.1887C12.3551 34.1753 12.3328 34.1619 12.3149 34.153C12.297 34.1441 12.2881 34.1396 12.2881 34.1396L11.5288 35.5154L11.1535 36.2032C11.1535 36.2032 11.158 36.2077 11.1714 36.2122C11.1803 36.2166 11.1982 36.2256 11.2161 36.2345C11.2563 36.2568 11.3099 36.2836 11.3769 36.3194C11.4082 36.3372 11.4439 36.3551 11.4841 36.3774C11.502 36.3864 11.5243 36.3998 11.5422 36.4087C11.56 36.4176 11.5824 36.431 11.6047 36.44C11.6896 36.4802 11.7789 36.5248 11.8682 36.5695C11.8906 36.5784 11.9129 36.5919 11.9352 36.6008C11.9442 36.6053 11.9576 36.6097 11.9665 36.6186C11.9754 36.6231 11.9888 36.6276 12.0022 36.6365C12.0469 36.6588 12.0916 36.6767 12.1318 36.6991C12.2166 36.7393 12.297 36.775 12.364 36.8063C12.3819 36.8152 12.3953 36.8197 12.4132 36.8286C12.431 36.8375 12.4444 36.842 12.4578 36.8465C12.4846 36.8599 12.5114 36.8688 12.5293 36.8777C12.5695 36.8956 12.5918 36.9045 12.5918 36.9045L12.2747 37.6237C12.2747 37.6237 12.2166 37.5969 12.1094 37.5522C12.0558 37.5299 11.9933 37.4986 11.9218 37.4673C11.8504 37.4361 11.77 37.3959 11.6806 37.3557C11.3277 37.1859 10.8632 36.9492 10.4121 36.6856C10.1887 36.5516 9.96092 36.4221 9.75544 36.2881C9.70184 36.2568 9.65271 36.2256 9.60357 36.1943C9.59911 36.1898 9.59017 36.1854 9.5857 36.1809C9.58124 36.1764 9.57231 36.172 9.56784 36.1675C9.55444 36.1586 9.5455 36.1496 9.5321 36.1452C9.50977 36.1273 9.48297 36.1139 9.46064 36.096C9.36683 36.0335 9.2775 35.9754 9.1971 35.9218C9.11223 35.8638 9.03629 35.8102 8.96929 35.761L8.97376 35.7566C4.03797 32.268 0.795087 26.5103 0.795087 19.9978C0.795087 9.38917 9.3981 0.786153 20.0067 0.786153C30.6153 0.786153 39.2183 9.38917 39.2183 19.9978C39.2138 26.3942 36.0916 32.0625 31.2808 35.5556ZM40 19.9978C40 8.95142 31.0441 0 19.9978 0C8.95589 0 0 8.95142 0 19.9978C0 26.7515 3.35008 32.7281 8.47794 36.3462C8.56281 36.4042 8.66108 36.4757 8.77722 36.5561C8.86209 36.6142 8.95589 36.6722 9.04969 36.7393C9.07649 36.7571 9.09883 36.7705 9.12563 36.7884C9.13903 36.7973 9.15243 36.8063 9.16136 36.8152C9.16583 36.8197 9.17476 36.8241 9.17923 36.8286C9.18369 36.8331 9.19263 36.8375 9.1971 36.842C9.2507 36.8733 9.3043 36.909 9.3579 36.9403C9.57231 37.0787 9.80458 37.2172 10.0413 37.3557C10.1575 37.4227 10.2781 37.4897 10.3942 37.5567C10.4076 37.5656 10.4255 37.5745 10.4389 37.579C10.4523 37.5879 10.4701 37.5969 10.4835 37.6013C10.5148 37.6147 10.5416 37.6326 10.5729 37.646C10.6309 37.6773 10.689 37.7085 10.7426 37.7353C10.7694 37.7487 10.8007 37.7666 10.8275 37.78C10.8409 37.7889 10.8543 37.7934 10.8677 37.8023C10.8811 37.8113 10.8945 37.8157 10.9079 37.8247C10.9615 37.8515 11.0151 37.8783 11.0687 37.9051C11.1223 37.9319 11.1714 37.9587 11.2205 37.981C11.2429 37.9944 11.2697 38.0033 11.292 38.0168C11.3143 38.0302 11.3411 38.0391 11.3635 38.0525C11.4573 38.0972 11.5422 38.1374 11.6136 38.1686C11.6896 38.2044 11.7521 38.2356 11.8057 38.258C11.9129 38.3071 11.9754 38.3339 11.9754 38.3339C11.9754 38.3339 12.0246 38.3562 12.1005 38.3875C12.1184 38.3964 12.1407 38.4054 12.163 38.4143C12.1854 38.4232 12.2077 38.4322 12.23 38.4456C12.2747 38.4634 12.3283 38.4858 12.3774 38.5081C12.4802 38.5483 12.5784 38.5885 12.6544 38.6198C12.7303 38.651 12.7795 38.6689 12.7795 38.6689L13.3467 37.2038L13.6326 36.4712C13.6326 36.4712 13.5879 36.4534 13.5209 36.4266C13.4539 36.3998 13.3646 36.364 13.2753 36.3283C13.2306 36.3104 13.1859 36.2926 13.1457 36.2747C13.1234 36.2658 13.1055 36.2568 13.0877 36.2479C13.0698 36.239 13.0519 36.23 13.0341 36.2256C12.9671 36.1943 12.9224 36.1764 12.9224 36.1764C12.9224 36.1764 12.8777 36.1586 12.8152 36.1273C12.7973 36.1184 12.7795 36.1139 12.7616 36.105C12.7437 36.096 12.7214 36.0871 12.7035 36.0782C12.6633 36.0603 12.6186 36.038 12.574 36.0201C12.4891 35.9799 12.3998 35.9397 12.3372 35.9084C12.2747 35.8772 12.23 35.8548 12.23 35.8548L12.5784 35.1491C12.5784 35.1491 12.6052 35.1625 12.6499 35.1848C12.6722 35.1982 12.699 35.2071 12.7303 35.225C12.7616 35.2384 12.7973 35.2563 12.8375 35.2742C12.8777 35.292 12.9179 35.3099 12.9626 35.3322C13.0073 35.3545 13.0519 35.3769 13.1011 35.3948C13.1993 35.4394 13.3021 35.4841 13.4093 35.5288C13.6192 35.6181 13.8336 35.703 13.9944 35.761C14.0748 35.7923 14.1418 35.8191 14.1865 35.837C14.2088 35.8459 14.2267 35.8504 14.2401 35.8548C14.2535 35.8593 14.258 35.8638 14.258 35.8638C14.258 35.8638 14.3652 35.8995 14.526 35.9576C14.5438 35.9665 14.5662 35.971 14.5885 35.9799C14.6108 35.9888 14.6332 35.9933 14.6555 36.0022C14.7002 36.0156 14.7493 36.0335 14.8029 36.0514C14.852 36.0692 14.9056 36.0871 14.9592 36.1005C14.9726 36.105 14.986 36.1094 14.9994 36.1139C15.0128 36.1184 15.0262 36.1228 15.0396 36.1273C15.0664 36.1362 15.0932 36.1452 15.12 36.1496C15.1736 36.1675 15.2317 36.1809 15.2853 36.1988C15.3121 36.2077 15.3389 36.2166 15.3657 36.2211C15.3791 36.2256 15.3925 36.23 15.4059 36.2345C15.4193 36.239 15.4327 36.2434 15.4461 36.2434C15.5489 36.2702 15.6471 36.297 15.7275 36.3194C15.7499 36.3238 15.7677 36.3283 15.7856 36.3372C15.7945 36.3417 15.8035 36.3417 15.8124 36.3462C15.8213 36.3506 15.8303 36.3506 15.8392 36.3506C15.8749 36.3596 15.9017 36.3685 15.9285 36.373C15.9777 36.3864 16.0045 36.3908 16.0045 36.3908L15.8169 37.1547C15.8169 37.1547 15.7677 37.1457 15.7007 37.1279C15.665 37.1189 15.6248 37.11 15.5801 37.0966C15.5355 37.0832 15.4908 37.0743 15.4461 37.0609C15.3523 37.0385 15.263 37.0117 15.1915 36.9939C15.1245 36.9715 15.0754 36.9581 15.0754 36.9581C15.0754 36.9581 15.0307 36.9447 14.9592 36.9224C14.9235 36.9135 14.8833 36.9001 14.8431 36.8867C14.8208 36.8822 14.7984 36.8733 14.7761 36.8688C14.7538 36.8643 14.7314 36.8554 14.7091 36.8465C14.526 36.7884 14.3428 36.7259 14.3428 36.7259L14.0927 37.4718L13.5879 38.9592L13.9989 39.0932C13.9989 39.0932 14.0257 39.1022 14.0614 39.1156C14.1016 39.129 14.1508 39.1424 14.2044 39.1602C14.3071 39.1915 14.4143 39.2228 14.4143 39.2228C14.4143 39.2228 14.4322 39.2272 14.459 39.2362C14.4902 39.2451 14.5349 39.2585 14.593 39.2764C14.651 39.2943 14.718 39.3121 14.7984 39.3344C14.8386 39.3434 14.8788 39.3568 14.928 39.3702C14.9503 39.3746 14.9726 39.3836 14.995 39.3881C15.0084 39.3925 15.0173 39.3925 15.0307 39.397C15.0441 39.4015 15.053 39.4015 15.0664 39.4059C15.4595 39.5042 15.9911 39.6248 16.5226 39.7186C17.0586 39.8124 17.5946 39.8794 18.0011 39.9241C18.0145 39.9241 18.0279 39.9285 18.0368 39.9285C18.0503 39.9285 18.0637 39.933 18.0726 39.933C18.0994 39.933 18.1217 39.9375 18.1441 39.9375C18.1887 39.9419 18.2334 39.9464 18.2736 39.9509C18.354 39.9598 18.4299 39.9643 18.488 39.9687C18.5461 39.9732 18.5952 39.9777 18.6265 39.9777C18.6577 39.9777 18.6756 39.9821 18.6756 39.9821L18.8096 39.9911C18.8498 39.9955 18.8989 39.9955 18.9481 40C18.9749 40 18.9972 40.0045 19.0285 40.0045C19.0553 40.0045 19.0821 40.0089 19.1089 40.0089C19.3277 40.0179 19.5422 40.0268 19.5422 40.0268L19.5958 37.6728L19.2116 37.6594C19.1893 37.6594 19.1625 37.6594 19.1401 37.6549C19.1178 37.6549 19.0955 37.6505 19.0731 37.6505C19.0285 37.646 18.9883 37.646 18.9525 37.6415C18.8811 37.6371 18.8319 37.6326 18.8319 37.6326C18.8319 37.6326 18.7828 37.6281 18.7113 37.6237C18.6399 37.6192 18.5461 37.6103 18.4478 37.6013C18.3987 37.5969 18.354 37.5924 18.3093 37.5879C18.2647 37.5835 18.2245 37.579 18.1887 37.5745C18.1173 37.5656 18.0681 37.5611 18.0681 37.5611L18.153 36.7794C18.153 36.7794 18.1798 36.7839 18.2334 36.7884C18.2557 36.7929 18.287 36.7929 18.3227 36.7973C18.3317 36.7973 18.3406 36.7973 18.3495 36.8018C18.3585 36.8018 18.3674 36.8018 18.3763 36.8063C18.3942 36.8063 18.4165 36.8107 18.4389 36.8107C18.5237 36.8197 18.622 36.8286 18.7292 36.8375C18.7426 36.8375 18.756 36.842 18.7694 36.842C18.7828 36.842 18.7962 36.842 18.8096 36.8465C18.8364 36.8465 18.8632 36.8509 18.8945 36.8509C18.9525 36.8554 19.0061 36.8599 19.0642 36.8599C19.091 36.8599 19.1223 36.8643 19.1491 36.8643C19.1625 36.8643 19.1759 36.8643 19.1937 36.8688C19.2071 36.8688 19.2205 36.8688 19.2339 36.8688C19.292 36.8688 19.3456 36.8733 19.3992 36.8733C19.4528 36.8733 19.5064 36.8777 19.5556 36.8777C19.5779 36.8777 19.6047 36.8822 19.627 36.8822C19.6494 36.8822 19.6717 36.8822 19.694 36.8822C19.8638 36.8822 19.9799 36.8867 19.9799 36.8867C19.9799 36.8867 19.9888 36.8867 20.0022 36.8867C20.0156 36.8867 20.0335 36.8867 20.0603 36.8867C20.1094 36.8867 20.1809 36.8822 20.2658 36.8822C20.4355 36.8822 20.6678 36.8688 20.8956 36.8599C21.0117 36.8509 21.1234 36.8465 21.2306 36.8375C21.2842 36.8331 21.3378 36.8286 21.3869 36.8241C21.4361 36.8197 21.4807 36.8152 21.5254 36.8107C21.5701 36.8063 21.6058 36.8018 21.6415 36.8018C21.6773 36.7973 21.7085 36.7973 21.7309 36.7929C21.78 36.7884 21.8068 36.7839 21.8068 36.7839L21.8917 37.5656C21.8917 37.5656 21.8425 37.5701 21.7711 37.579C21.6996 37.5835 21.6058 37.5924 21.5075 37.6013C21.4584 37.6058 21.4137 37.6103 21.3691 37.6147C21.3467 37.6192 21.3244 37.6192 21.3065 37.6192C21.2842 37.6192 21.2663 37.6237 21.2485 37.6237C21.177 37.6281 21.1279 37.6326 21.1279 37.6326C21.1279 37.6326 21.0787 37.6371 21.0073 37.6415C20.9894 37.6415 20.9715 37.646 20.9492 37.646C20.9269 37.646 20.909 37.6505 20.8867 37.6505C20.842 37.6505 20.7929 37.6549 20.7437 37.6549C20.6499 37.6594 20.5516 37.6639 20.4802 37.6639C20.4087 37.6639 20.3596 37.6639 20.3596 37.6639L20.3774 38.45L20.4087 40.0223C20.4087 40.0223 20.4355 40.0223 20.4757 40.0223C20.498 40.0223 20.5204 40.0223 20.5427 40.0223C20.5695 40.0223 20.5963 40.0223 20.6231 40.0179C20.7303 40.0134 20.842 40.0089 20.842 40.0089C20.842 40.0089 20.8688 40.0089 20.909 40.0045C20.9313 40.0045 20.9537 40.0045 20.9805 40C21.0073 40 21.0341 40 21.0609 39.9955C21.1681 39.9911 21.2797 39.9821 21.2797 39.9821C21.2797 39.9821 21.3467 39.9777 21.4673 39.9687C21.5254 39.9643 21.5969 39.9598 21.6817 39.9509C21.7621 39.9419 21.8559 39.933 21.9587 39.9241C21.9855 39.9196 22.0078 39.9196 22.0346 39.9151C22.0614 39.9107 22.0882 39.9107 22.115 39.9062C22.1686 39.9017 22.2267 39.8928 22.2848 39.8883C22.3428 39.8839 22.4009 39.8749 22.4634 39.866C22.4768 39.866 22.4947 39.8615 22.5081 39.8615C22.5215 39.8571 22.5394 39.8571 22.5528 39.8526C22.584 39.8481 22.6153 39.8437 22.6466 39.8392C22.7091 39.8303 22.7761 39.8213 22.8386 39.8124C22.8699 39.8079 22.9056 39.8035 22.9369 39.799C22.9548 39.7945 22.9682 39.7945 22.986 39.7945C23.0039 39.7901 23.0173 39.7901 23.0352 39.7856C23.1692 39.7633 23.3032 39.7409 23.4372 39.7186C23.7052 39.6695 23.9732 39.6203 24.2189 39.5623C24.2814 39.5489 24.3439 39.5355 24.402 39.5221C24.4109 39.5221 24.4154 39.5176 24.4243 39.5176C24.4333 39.5176 24.4377 39.5131 24.4467 39.5131C24.4601 39.5087 24.4779 39.5042 24.4913 39.5042C24.5226 39.4953 24.5494 39.4908 24.5762 39.4819C24.6879 39.4551 24.7951 39.4283 24.8978 39.4059C25.0944 39.3523 25.2596 39.3076 25.3713 39.2764C25.4874 39.2406 25.55 39.2228 25.55 39.2228C25.55 39.2228 25.6036 39.2049 25.6795 39.1826C25.7197 39.1692 25.7644 39.1558 25.8135 39.1424C25.8626 39.129 25.9118 39.1111 25.9654 39.0932C26.0681 39.062 26.1709 39.0262 26.2513 39.0039C26.2915 38.9905 26.3227 38.9816 26.3451 38.9726C26.3674 38.9637 26.3808 38.9592 26.3808 38.9592L25.876 37.4718L25.6214 36.7303C25.6214 36.7303 25.6125 36.7348 25.5902 36.7393C25.5723 36.7437 25.541 36.7571 25.5098 36.7661C25.4428 36.7884 25.349 36.8152 25.2596 36.8465C25.215 36.8599 25.1703 36.8777 25.1256 36.8911C25.081 36.9045 25.0408 36.9135 25.0095 36.9269C24.9425 36.9492 24.8934 36.9626 24.8934 36.9626C24.8934 36.9626 24.8487 36.976 24.7772 36.9983C24.7594 37.0028 24.7415 37.0073 24.7236 37.0162C24.7013 37.0207 24.6834 37.0251 24.6611 37.0341C24.6164 37.0475 24.5717 37.0564 24.5271 37.0698C24.4824 37.0832 24.4333 37.0966 24.3931 37.1055C24.3707 37.11 24.3484 37.1189 24.3305 37.1234C24.3082 37.1279 24.2903 37.1323 24.2725 37.1368C24.201 37.1547 24.1563 37.1636 24.1563 37.1636L23.9687 36.3998C23.9687 36.3998 23.9955 36.3908 24.0447 36.3819C24.067 36.3774 24.0983 36.3685 24.134 36.3596C24.1697 36.3506 24.2055 36.3417 24.2457 36.3283C24.3261 36.306 24.4243 36.2792 24.5271 36.2524C24.6298 36.2211 24.7415 36.1898 24.8487 36.1586C24.9023 36.1407 24.9559 36.1228 25.0095 36.1094C25.0631 36.0916 25.1167 36.0737 25.1658 36.0603C25.1926 36.0514 25.215 36.0424 25.2418 36.038C25.2641 36.029 25.2909 36.0246 25.3132 36.0156C25.3579 35.9978 25.4026 35.9844 25.4428 35.971C25.5232 35.9442 25.5902 35.9218 25.6393 35.904C25.6527 35.8995 25.6616 35.895 25.6706 35.895C25.6795 35.8906 25.6884 35.8906 25.6929 35.8861C25.7063 35.8816 25.7108 35.8772 25.7108 35.8772C25.7108 35.8772 25.818 35.837 25.9788 35.7744C26.0011 35.7655 26.019 35.761 26.0413 35.7521C26.0637 35.7432 26.086 35.7342 26.1083 35.7253C26.153 35.7074 26.2021 35.6896 26.2513 35.6672C26.3004 35.6494 26.354 35.627 26.4031 35.6047C26.4076 35.6002 26.4165 35.6002 26.421 35.5958L26.4389 35.5868C26.4523 35.5824 26.4657 35.5734 26.4791 35.569C26.5059 35.5556 26.5327 35.5466 26.5595 35.5332C26.6131 35.5109 26.6667 35.4886 26.7158 35.4662C26.7426 35.4573 26.7649 35.4439 26.7917 35.435C26.8185 35.426 26.8409 35.4126 26.8677 35.3992C26.9659 35.3545 27.0553 35.3144 27.1357 35.2786C27.1446 35.2742 27.1535 35.2697 27.1625 35.2652C27.1714 35.2607 27.1803 35.2563 27.1893 35.2518C27.2071 35.2429 27.225 35.2339 27.2384 35.225C27.2697 35.2116 27.2965 35.1982 27.3188 35.1848C27.3635 35.1625 27.3903 35.1491 27.3903 35.1491L27.7387 35.8548C27.7387 35.8548 27.694 35.8772 27.6315 35.9084C27.6002 35.9263 27.56 35.9442 27.5198 35.962C27.502 35.971 27.4796 35.9799 27.4573 35.9933C27.435 36.0022 27.4126 36.0112 27.3948 36.0246C27.3054 36.0648 27.2205 36.105 27.1535 36.1362C27.1357 36.1452 27.1223 36.1496 27.1089 36.1586C27.0955 36.163 27.0821 36.1675 27.0731 36.172C27.0553 36.1809 27.0419 36.1854 27.0419 36.1854C27.0419 36.1854 26.9972 36.2032 26.9302 36.2345C26.8989 36.2479 26.8587 36.2658 26.8185 36.2836C26.7962 36.2926 26.7783 36.3015 26.756 36.3104C26.7471 36.3149 26.7337 36.3194 26.7247 36.3238C26.7158 36.3283 26.7024 36.3328 26.6935 36.3372C26.5148 36.4087 26.3361 36.4802 26.3361 36.4802L27.1937 38.6778L27.5958 38.517C27.5958 38.517 27.6002 38.5126 27.6136 38.5081C27.6181 38.5036 27.627 38.5036 27.6315 38.4992C27.6404 38.4947 27.6494 38.4902 27.6583 38.4902C27.694 38.4724 27.7476 38.4545 27.7968 38.4322C27.895 38.3875 27.9978 38.3473 27.9978 38.3473C27.9978 38.3473 28.0112 38.3428 28.0424 38.3294C28.0737 38.316 28.1139 38.2982 28.1675 38.2714C28.2211 38.2446 28.2881 38.2178 28.364 38.182C28.3998 38.1642 28.44 38.1463 28.4846 38.1284C28.4936 38.124 28.507 38.1195 28.5159 38.115C28.5248 38.1106 28.5382 38.1061 28.5472 38.0972C28.5695 38.0882 28.5918 38.0748 28.6142 38.0659C28.708 38.0212 28.8063 37.9721 28.909 37.9229C28.9358 37.9095 28.9626 37.8961 28.9894 37.8827C29.0162 37.8693 29.043 37.8559 29.0698 37.8425C29.1234 37.8157 29.1815 37.7845 29.2351 37.7577C29.2619 37.7443 29.2931 37.7264 29.3199 37.713C29.3333 37.7041 29.3512 37.6996 29.3646 37.6907C29.378 37.6817 29.3914 37.6728 29.4093 37.6683C29.4673 37.6371 29.5254 37.6058 29.5835 37.5745C29.6415 37.5433 29.6996 37.512 29.7621 37.4763C29.7934 37.4584 29.8202 37.4405 29.8515 37.4271C29.8827 37.4093 29.9095 37.3914 29.9408 37.3735C29.9989 37.3378 30.0569 37.3065 30.115 37.2708C30.1463 37.2529 30.1731 37.2351 30.2044 37.2217C30.2312 37.2038 30.2624 37.1859 30.2892 37.1681C30.4009 37.0966 30.517 37.0296 30.6242 36.9626C30.7314 36.8956 30.8342 36.8286 30.9324 36.7616C30.9548 36.7437 30.9816 36.7303 31.0039 36.7125C31.0262 36.6946 31.053 36.6812 31.0709 36.6633C31.1156 36.632 31.1602 36.6008 31.2004 36.574C31.2406 36.5427 31.2808 36.5159 31.321 36.4936C31.3389 36.4802 31.3612 36.4668 31.3791 36.4534C31.3881 36.4489 31.397 36.44 31.4059 36.4355C31.4148 36.431 31.4238 36.4221 31.4327 36.4176C31.464 36.3953 31.4908 36.3774 31.5176 36.3596C31.598 36.3015 31.6739 36.2479 31.7543 36.1898C31.7588 36.1854 31.7588 36.1854 31.7588 36.1854C31.7588 36.1854 31.7588 36.1854 31.7633 36.1854C36.7616 32.5271 40 26.6399 40 19.9978Z" fill="#138C9D"/>
<path d="M18.756 30.392C18.6488 30.392 18.5639 30.4232 18.5014 30.4902C18.4389 30.5572 18.4076 30.6555 18.4076 30.7895L18.4165 30.8967C18.4165 31.1558 18.5416 31.2808 18.7917 31.2808C18.9034 31.2808 19.0061 31.2585 19.1089 31.2138V30.7895C19.1089 30.66 19.0776 30.5572 19.0151 30.4902C18.9436 30.4277 18.8587 30.392 18.756 30.392Z" fill="#138C9D"/>
<path d="M20.641 31.3612C20.5293 31.3612 20.4266 31.3836 20.3238 31.4283V31.8526C20.3238 31.9821 20.3551 32.0804 20.4176 32.1519C20.4802 32.2189 20.565 32.2501 20.6722 32.2501C20.7795 32.2501 20.8643 32.2144 20.9269 32.1474C20.9894 32.0804 21.0207 31.9821 21.0207 31.8481L21.0117 31.7454C21.0162 31.4908 20.8956 31.3612 20.641 31.3612Z" fill="#138C9D"/>
<path d="M12.431 11.3769C12.431 11.3769 15.5846 8.83529 19.9978 8.82189H20.0067C24.4199 8.83529 27.5734 11.3769 27.5734 11.3769L28.0156 10.7917C27.5913 10.3897 26.5729 9.79564 26.5729 9.79564L27.1267 7.79453L26.4925 7.48185L25.3936 9.2105C24.2412 8.64322 22.6823 8.32607 22.6823 8.32607L22.7806 6.29816L22.0704 6.15522L21.4271 8.1206C20.6499 8.04467 20.1452 8.04914 20.0112 8.0536H20.0022C19.8682 8.04914 19.368 8.04467 18.5863 8.1206L17.943 6.15522L17.2328 6.29816L17.3311 8.32607C17.3311 8.32607 15.7677 8.64322 14.6198 9.2105L13.5209 7.48185L12.8867 7.79453L13.4405 9.79564C13.4405 9.79564 12.4221 10.3853 11.9978 10.7917L12.431 11.3769Z" fill="#138C9D"/>
<path d="M20.0022 9.53211C19.9978 9.53211 19.9933 9.53211 19.9933 9.53211C19.6806 9.5187 16.268 9.45617 12.8733 11.9397L12.9626 12.029H14.0391C14.0391 12.029 16.6789 10.287 19.9933 10.2736H20.0022C23.321 10.287 25.9564 12.029 25.9564 12.029H27.0329L27.1223 11.9397C23.7275 9.45617 20.3149 9.5187 20.0022 9.53211Z" fill="#138C9D"/>
<path d="M35.6449 26.6175C35.2205 27.6226 34.6935 28.5963 34.077 29.5031C33.4696 30.4009 32.7728 31.2496 32.0045 32.0179C31.5757 32.4467 31.1245 32.8532 30.651 33.2328L30.5438 33.0318C34.3361 29.9542 36.7616 25.2596 36.7616 20.0112C36.7616 10.7694 29.2395 3.24735 19.9978 3.24735C10.7515 3.24735 3.23395 10.7694 3.23395 20.0112C3.23395 25.2596 5.65494 29.9497 9.44277 33.0274L9.33557 33.2284C8.86655 32.8487 8.41988 32.4467 7.99107 32.0223C7.22278 31.254 6.52596 30.4098 5.91848 29.5075C5.30653 28.6008 4.77945 27.627 4.35064 26.622C3.91736 25.5991 3.58236 24.5226 3.36348 23.4327C3.13568 22.316 3.01954 21.1636 3.01954 20.0112C3.01954 18.8587 3.13568 17.7063 3.36348 16.5896C3.58682 15.4997 3.91736 14.4277 4.35064 13.4003C4.77499 12.3953 5.30207 11.426 5.91848 10.5148C6.52596 9.61697 7.22278 8.76829 7.99107 8C8.75935 7.23171 9.60357 6.5349 10.5059 5.92741C11.4126 5.31547 12.3819 4.78839 13.3914 4.35958C14.4143 3.9263 15.4908 3.59129 16.5807 3.37242C17.6974 3.14461 18.8498 3.02848 20.0022 3.02848C21.1547 3.02848 22.3071 3.14461 23.4238 3.37242C24.5137 3.59576 25.5857 3.9263 26.6131 4.35958C27.6181 4.78392 28.5918 5.311 29.4986 5.92741C30.3964 6.5349 31.2451 7.23171 32.0134 8C32.7817 8.76829 33.4785 9.61251 34.086 10.5148C34.6979 11.4216 35.225 12.3908 35.6538 13.4003C36.0871 14.4277 36.4221 15.4997 36.641 16.5896C36.8688 17.7063 36.9849 18.8587 36.9849 20.0112C36.9849 21.1636 36.8688 22.316 36.641 23.4327C36.4132 24.5181 36.0826 25.5946 35.6449 26.6175ZM12.0246 7.51759L13.7577 6.6555L15.0084 8.28141C15.3032 8.14294 16.469 7.78113 16.469 7.78113L16.3975 5.69961L18.4835 5.2976L19.1893 7.35232C19.5288 7.32998 19.9397 7.32552 19.9978 7.32552C19.9978 7.32552 19.9978 7.32552 20.0022 7.32552C20.0067 7.32552 20.0067 7.32552 20.0067 7.32552C20.0648 7.32552 20.4757 7.32998 20.8152 7.35232L21.5209 5.2976L23.6069 5.69961L23.5355 7.78113C23.5355 7.78113 24.7013 8.14294 24.9961 8.28141L26.2468 6.6555L27.9799 7.51759L27.4796 9.52317C27.4796 9.52317 28.5918 10.2334 29.0609 10.7024L27.359 12.6723H25.5857C25.5857 12.6723 23.187 11.0151 20.0022 11.0151C16.813 11.0151 14.4188 12.6723 14.4188 12.6723H12.641L10.9391 10.7024C11.4082 10.2334 12.5204 9.52317 12.5204 9.52317L12.0246 7.51759ZM30.115 27.8593H23.3881C22.7627 27.8593 21.4271 27.8593 20.9447 27.8593V26.1128C20.9447 25.4651 21.1636 24.9246 21.6013 24.5047C21.8113 24.3037 22.0748 24.1295 22.3786 23.9911C22.6823 23.8526 23.0307 23.7409 23.4193 23.665C23.8035 23.5891 24.6566 23.4372 25.7554 23.2317L25.8984 23.2049V16.2367L25.684 16.2769C24.737 16.4645 23.4863 16.7102 22.9056 16.8264C22.0212 17.0006 21.4003 17.1256 21.0609 17.1926C20.5293 17.2954 20.3372 17.6348 20.3194 18.0771V27.8593H19.6717V18.1039C19.6628 17.6527 19.4707 17.3043 18.9302 17.1971C18.5907 17.1301 17.9698 17.0095 17.0854 16.8353C16.6298 16.746 15.6963 16.5628 14.3071 16.2859L14.0927 16.2457V23.2138L14.2356 23.2406C15.3166 23.4372 16.1831 23.598 16.5717 23.6739C16.9604 23.7499 17.3088 23.8571 17.6125 24C17.9162 24.1429 18.1798 24.3127 18.3897 24.5137C18.8275 24.9291 19.0463 25.4696 19.0463 26.1217V27.8682C18.5639 27.8682 17.2328 27.8682 16.603 27.8682H9.88498V14.392H11.3992V26.3406H16.6164C16.8308 26.3406 17.3579 26.3406 17.3624 26.3406H17.5366L17.541 26.1664C17.541 26.1664 17.541 26.1396 17.541 26.1128C17.541 25.6527 17.2016 25.2998 16.6477 25.1926C16.3037 25.1256 15.6873 24.9916 14.8029 24.8264C13.9676 24.67 12.9179 24.4824 12.5829 24.4154V14.4322L19.3054 15.7543C19.5824 15.8079 19.7655 15.866 19.9174 15.9419L19.9978 15.9821L20.0782 15.9419C20.23 15.8615 20.4132 15.8079 20.6901 15.7543C21.5701 15.5801 26.3406 14.6421 27.4126 14.4322V24.4154C27.0776 24.4824 26.0547 24.6566 25.1926 24.8264C24.3127 25.0006 23.6918 25.1256 23.3478 25.1926C22.7984 25.2998 22.4545 25.6527 22.4545 26.1128C22.4545 26.1396 22.4545 26.1619 22.4545 26.1664L22.459 26.3406H22.6332C22.6376 26.3406 23.1647 26.3406 23.3791 26.3406H28.5918V14.392H30.1106V27.8593H30.115ZM26.4389 31.5265H24.1876V31.2942H26.4389V31.5265ZM23.1558 30.8431C23.1558 31.0352 23.1156 31.1915 23.0307 31.3166C22.9458 31.4417 22.8118 31.5444 22.6242 31.6248C22.4322 31.7052 22.3071 31.7811 22.2401 31.8481C22.1731 31.9151 22.1418 32 22.1418 32.1027V32.2055H23.0486C23.1245 32.2055 23.1602 32.268 23.1602 32.3841C23.1602 32.5047 23.12 32.5628 23.0486 32.5628H21.8515C21.7621 32.5628 21.7219 32.5181 21.7219 32.4199V32.2055C21.7219 31.9777 21.7666 31.799 21.847 31.6739C21.9274 31.5489 22.0793 31.4417 22.2982 31.3434C22.4768 31.2674 22.5974 31.196 22.6555 31.1245C22.718 31.053 22.7493 30.9548 22.7493 30.8297L22.7404 30.7136C22.7404 30.6064 22.7136 30.526 22.6555 30.4724C22.5974 30.4188 22.526 30.392 22.4277 30.392C22.3339 30.392 22.258 30.4188 22.1999 30.4724C22.1418 30.526 22.115 30.6064 22.115 30.7136V30.7582C22.115 30.8476 22.0435 30.8878 21.9006 30.8878C21.7577 30.8878 21.6862 30.8431 21.6862 30.7582V30.7002C21.6862 30.5215 21.7532 30.3652 21.8827 30.2312C22.0123 30.0972 22.191 30.0302 22.4143 30.0302C22.6466 30.0302 22.8297 30.0927 22.9637 30.2267C23.0977 30.3607 23.1602 30.526 23.1602 30.727V30.8431H23.1558ZM21.4316 31.866C21.4316 32.0983 21.3601 32.2814 21.2172 32.4154C21.0743 32.5449 20.8867 32.612 20.6633 32.612C20.4355 32.612 20.2524 32.5449 20.1094 32.4154C19.962 32.2859 19.895 32.1027 19.895 31.866V30.7314C19.895 30.526 19.962 30.3607 20.096 30.2312C20.23 30.1061 20.4132 30.0391 20.6499 30.0391C20.8777 30.0391 21.0564 30.1016 21.1859 30.2312C21.3155 30.3607 21.3825 30.5126 21.3825 30.6912V30.718C21.3825 30.8074 21.311 30.8476 21.1725 30.8476C21.0296 30.8476 20.9581 30.8029 20.9581 30.718V30.7091C20.9581 30.6198 20.9269 30.5483 20.8643 30.4902C20.8063 30.4322 20.7259 30.4054 20.6365 30.4054C20.5472 30.4054 20.4757 30.4322 20.4132 30.4902C20.3506 30.5483 20.3194 30.6198 20.3194 30.7046V31.0754C20.431 31.0307 20.5561 31.0039 20.6946 31.0039C20.9179 31.0039 21.0966 31.0664 21.2351 31.196C21.3735 31.3255 21.4405 31.5131 21.4405 31.7499L21.4316 31.866ZM19.5332 31.8481C19.5332 32.0804 19.4662 32.2635 19.3277 32.402C19.1893 32.5405 18.9972 32.612 18.756 32.612L18.7515 32.6164C18.4701 32.6164 18.2468 32.5226 18.0815 32.3439C18.0458 32.3037 18.0279 32.268 18.0279 32.2278C18.0279 32.1831 18.0502 32.134 18.1039 32.0893C18.153 32.0447 18.2021 32.0223 18.2468 32.0223C18.2825 32.0223 18.3138 32.0357 18.3406 32.067C18.4567 32.1965 18.5907 32.2591 18.7426 32.2591C18.8587 32.2591 18.9525 32.2278 19.0151 32.1653C19.0776 32.1027 19.1089 32.0089 19.1089 31.8883V31.5801C18.9972 31.6248 18.8721 31.6516 18.7337 31.6516C18.5103 31.6516 18.3317 31.5846 18.1932 31.4551C18.0547 31.3255 17.9877 31.1424 17.9877 30.9056V30.7895C17.9877 30.5572 18.0592 30.3741 18.2021 30.2401C18.3451 30.1106 18.5327 30.0436 18.756 30.0436C18.9838 30.0436 19.1669 30.1106 19.3099 30.2401C19.4573 30.3696 19.5243 30.5528 19.5243 30.7895V31.8481H19.5332ZM17.4115 32.5986C17.2686 32.5986 17.1971 32.5539 17.1971 32.469V30.4724L16.7192 30.5349C16.6789 30.5394 16.6477 30.526 16.6253 30.5036C16.603 30.4813 16.5851 30.4366 16.5807 30.3741C16.5628 30.249 16.5896 30.182 16.6656 30.1731L17.1524 30.1016C17.2596 30.0838 17.3624 30.0748 17.4606 30.0748C17.5723 30.0748 17.6214 30.1195 17.6214 30.2088L17.6259 32.4646C17.6214 32.5539 17.55 32.5986 17.4115 32.5986ZM15.799 31.5265H13.5477V31.2942H15.799V31.5265ZM20.0022 2.41653C10.287 2.41653 2.41206 10.2915 2.41206 20.0067C2.41206 26.3629 5.78001 31.9285 10.8319 35.0195L11.1669 34.4031L11.9799 32.9291L12.7393 33.3802L12.8107 33.416L13.0207 33.5276C13.0296 33.5321 13.0385 33.5366 13.043 33.541C13.0475 33.5455 13.0564 33.55 13.0609 33.55L13.0966 33.5678L13.11 33.5768L13.3065 33.675L13.3735 33.7108L13.378 33.7152H13.3825C13.3869 33.7197 13.4003 33.7242 13.4137 33.7286C13.4182 33.7331 13.4271 33.7331 13.4316 33.7376L13.4897 33.7644L13.5343 33.7867L13.6549 33.8448C13.6639 33.8492 13.6728 33.8537 13.6817 33.8582C13.7085 33.8716 13.7353 33.885 13.7577 33.8939L13.7666 33.9029L13.9453 33.9832L14.048 34.0279C14.0793 34.0413 14.1061 34.0503 14.1329 34.0637C14.2937 34.1307 14.45 34.1932 14.5617 34.2334H14.5662L14.5706 34.2379L14.6555 34.2691L14.7582 34.3093H14.7672C14.7716 34.3093 14.7716 34.3093 14.7761 34.3138C14.7806 34.3138 14.785 34.3183 14.794 34.3183L14.8118 34.3227L15.0709 34.4121L15.129 34.4344C15.1334 34.4344 15.1424 34.4389 15.1468 34.4389C15.1558 34.4433 15.1647 34.4433 15.1736 34.4478L15.2228 34.4657L15.3121 34.4925L15.321 34.4969L15.4595 34.5416L15.4863 34.5505L15.5042 34.555L15.5131 34.5595L15.5533 34.5729L15.5891 34.5818L15.6337 34.5907L15.7543 34.6265L15.8035 34.6399L15.8347 34.6488L15.8437 34.6533L15.8571 34.6577L15.8794 34.6622H15.8839L16.0134 34.6979L16.1563 34.7381L16.2099 34.7515H16.2144L16.2278 34.756H16.2323L16.2457 34.7605L16.268 34.7649L16.3305 34.7783L16.5092 34.823L16.5494 34.8319L16.6075 34.8453L16.7013 34.8632L16.7236 34.8677L16.9604 34.9168L16.9916 34.9257L17.014 34.9302L17.0452 34.9347L17.3847 34.9972L17.7152 35.0508L17.7465 35.0553H17.751L17.7688 35.0597H17.7822L17.8001 35.0642L17.885 35.0776L18.0368 35.0999L18.1441 35.1133H18.1575L18.2513 35.1223L18.3585 35.1357L18.4344 35.1446L18.4835 35.1491L18.5148 35.1535H18.5416L18.5997 35.158L18.8766 35.1804H18.9302L18.9749 35.1848H19.0106L19.0597 35.1893L19.1714 35.1982L19.2205 35.2027H19.3054L19.4618 35.2071L19.5422 35.2116L19.6092 35.2161C19.6181 35.2161 19.6315 35.2161 19.6404 35.2161C19.6494 35.2161 19.6583 35.2161 19.6583 35.2161H19.7208L19.9933 35.2206H20.0112C20.0156 35.2206 20.0201 35.2206 20.029 35.2206C20.0335 35.2206 20.0335 35.2206 20.038 35.2206H20.0737L20.2434 35.2161H20.2524C20.373 35.2161 20.5382 35.2071 20.7125 35.2027C20.7437 35.2027 20.775 35.1982 20.8063 35.1982L20.9537 35.1893L21.1145 35.1804H21.1234C21.1457 35.1804 21.177 35.1759 21.2083 35.1714C21.2172 35.1714 21.2306 35.1714 21.2395 35.167L21.311 35.158L21.4271 35.1491L21.4807 35.1446C21.4897 35.1446 21.4941 35.1446 21.5031 35.1446C21.512 35.1446 21.5299 35.1401 21.5343 35.1401H21.5433L21.6192 35.1312L21.7264 35.1178L21.7487 35.1133L21.8381 35.1044L21.8649 35.0999L21.8961 35.0955C21.9006 35.0955 21.9095 35.0955 21.9185 35.091C21.9274 35.091 21.9363 35.0865 21.9453 35.0865L22.182 35.0553L22.258 35.0463L23.1245 34.8811V34.8855L23.2451 34.8587L23.263 34.8543L23.3076 34.8453C23.3166 34.8453 23.3255 34.8409 23.3389 34.8409C23.3434 34.8409 23.3434 34.8409 23.3478 34.8409H23.4372L23.4863 34.8319L23.665 34.7873C23.6739 34.7828 23.6829 34.7828 23.6963 34.7783C23.7097 34.7739 23.7231 34.7739 23.7365 34.7694L23.8079 34.7515L23.8392 34.7426L23.9955 34.7024L24.0983 34.6756L24.3975 34.5863H24.4065C24.4288 34.5773 24.4601 34.5684 24.4913 34.5595C24.5047 34.555 24.5181 34.5505 24.5315 34.5461L24.6745 34.5014H24.6789L24.7504 34.4835C24.7549 34.4791 24.7638 34.4791 24.7683 34.4791C24.7772 34.4746 24.7862 34.4746 24.7906 34.4701H24.7996L24.9246 34.4255L25.0095 34.3942L25.1122 34.3585L25.1301 34.354H25.1346L25.139 34.3495L25.1569 34.3451L25.4115 34.2513L25.4472 34.2379L25.4651 34.2334C25.4696 34.2334 25.4785 34.2289 25.4874 34.2245C25.4964 34.22 25.5053 34.2155 25.5142 34.2155L25.6482 34.1619L25.6795 34.1485L25.7956 34.1039L25.8135 34.0949L25.8269 34.0905L25.8492 34.0815L25.9207 34.0458L26.019 34.0056L26.0726 33.9832L26.1217 33.9609L26.1351 33.9565L26.1977 33.9252L26.4523 33.809L26.4701 33.8001L26.4835 33.7912L26.5014 33.7822L26.5639 33.7554L26.6131 33.7331L26.6801 33.7018L26.7783 33.6527L26.7873 33.6438C26.7917 33.6393 26.8096 33.6348 26.8185 33.6259C26.8319 33.617 26.8409 33.6125 26.8543 33.608L26.9213 33.5723L26.9659 33.55C26.9927 33.5366 27.0151 33.5232 27.0419 33.5098C27.0865 33.4874 27.1267 33.4651 27.1491 33.4517L27.158 33.4428L27.2518 33.3892L28.0112 32.9693L28.431 33.7331L28.8107 34.421L29.1547 35.0463C34.2155 31.9375 37.5924 26.3674 37.5924 20.0067C37.5924 10.2915 29.713 2.41653 20.0022 2.41653Z" fill="#138C9D"/>
</svg>
