<svg width="24" height="24" viewBox="0 0 24 24" fill="none" xmlns="http://www.w3.org/2000/svg">
<g clip-path="url(#clip0_4_483)">
<mask id="mask0_4_483" style="mask-type:alpha" maskUnits="userSpaceOnUse" x="0" y="0" width="24" height="24">
<path fill-rule="evenodd" clip-rule="evenodd" d="M5.96464 0.010538L6.9912 0L17.6724 0.00412448C17.8344 0.00577461 17.935 0.00780025 18.0358 0.010538C18.5653 0.0246015 19.0995 0.0556169 19.6231 0.148662C20.1548 0.242944 20.6492 0.397193 21.1319 0.640362C21.6062 0.878955 22.0408 1.19075 22.4172 1.56338C22.7937 1.93511 23.1091 2.36437 23.3504 2.83372C23.5968 3.31135 23.7524 3.80017 23.8478 4.32577C23.9419 4.8435 23.9732 5.37157 23.9874 5.89511C23.9942 6.13536 23.9971 6.37564 23.9983 6.61629L23.9998 7.04416L24 16.5258C24 16.8111 24 17.0965 23.9983 17.3822C23.9971 17.6225 23.9942 17.8628 23.9874 18.103C23.9732 18.6261 23.9419 19.1546 23.8478 19.6719C23.7524 20.1975 23.5968 20.6868 23.3504 21.1644C23.1091 21.6333 22.7937 22.0626 22.4172 22.4348C22.0408 22.807 21.6062 23.1192 21.1319 23.3578C20.6492 23.6009 20.1548 23.7552 19.6231 23.8495C19.0995 23.9425 18.5653 23.9735 18.0358 23.9876L16.4405 24L6.32771 23.994C6.16575 23.9923 6.06521 23.9903 5.96464 23.9876C5.4351 23.9735 4.90095 23.9425 4.37726 23.8495C3.84566 23.7552 3.35126 23.6009 2.86856 23.3578C2.39381 23.1192 1.95964 22.807 1.58318 22.4348C1.20675 22.0626 0.891338 21.6333 0.649575 21.1644C0.40365 20.6868 0.248024 20.1975 0.152249 19.6719C0.0581243 19.1546 0.0271872 18.6261 0.0129747 18.103C0.00626224 17.8628 0.00333749 17.6225 0.00209999 17.3822L0.000263214 16.9538L0 7.47233C0 7.18697 -9.0804e-09 6.90124 0.00209999 6.61629C0.00333749 6.37564 0.00626224 6.13536 0.0129747 5.89511C0.0271872 5.37157 0.0581243 4.8435 0.152249 4.32577C0.248024 3.80017 0.40365 3.31135 0.649575 2.83372C0.891338 2.36437 1.20675 1.93511 1.58318 1.56338C1.95964 1.19075 2.39381 0.878955 2.86856 0.640362C3.35126 0.397193 3.84566 0.242944 4.37726 0.148662C4.90095 0.0556169 5.4351 0.0246015 5.96464 0.010538Z" fill="white"/>
</mask>
<g mask="url(#mask0_4_483)">
<path d="M24 -0.00187683H0V24H24V-0.00187683Z" fill="#19AA1E"/>
<path fill-rule="evenodd" clip-rule="evenodd" d="M0 -0.00187683H24V7.87373L0 4.12344V-0.00187683Z" fill="#FFB919"/>
<path fill-rule="evenodd" clip-rule="evenodd" d="M0 21.3748L24 17.6245V24H0V21.3748Z" fill="#82D714"/>
<path fill-rule="evenodd" clip-rule="evenodd" d="M0 3.64899L8.37739 4.95803C9.42022 4.29786 10.6609 3.93592 12 3.93592C13.8547 3.93592 15.5206 4.63029 16.7336 5.84958C16.8867 6.00346 17.031 6.16435 17.1664 6.33142L24 7.39924V8.34817L17.8603 7.38881C18.3164 8.26421 18.5625 9.23954 18.5625 10.2349C18.5625 11.5208 18.2749 12.803 17.6804 14.0902L17.6623 14.1292L17.4098 14.6703H16.8127C15.5798 14.6703 14.762 15.0391 14.2273 15.6927C13.8075 16.206 13.5647 16.8978 13.483 17.6527L13.4805 17.6763L13.4686 17.7969L13.4635 17.8494L13.4538 17.952C13.4226 18.2891 13.4016 18.5749 13.391 18.8078L24 17.15V18.0989L0 21.8492V20.9003L10.6209 19.2406L10.6163 19.0276L10.6149 18.9675L10.614 18.9367L10.6123 18.8891C10.6027 18.6308 10.5791 18.2997 10.5412 17.8984L10.5339 17.8223L10.5209 17.6905C10.4447 16.9316 10.2056 16.231 9.78683 15.7101C9.25774 15.052 8.44744 14.6778 7.22445 14.6704L7.18729 14.6703H6.59021L6.33773 14.1292C5.73094 12.8288 5.4375 11.5338 5.4375 10.2349C5.4375 8.60147 6.10013 7.02196 7.26641 5.84958C7.30009 5.81576 7.3341 5.7823 7.36845 5.7493L0 4.59789V3.64899Z" fill="white"/>
<path fill-rule="evenodd" clip-rule="evenodd" d="M12 4.8735C15.3506 4.8735 17.625 7.45268 17.625 10.2349C17.625 11.3519 17.3813 12.5142 16.8127 13.7327C13.5157 13.7327 12.7019 16.094 12.548 17.5797L12.5382 17.6787C12.486 18.209 12.4559 18.6345 12.4476 18.9552L11.5546 19.0947L11.5544 19.0659C11.551 18.7296 11.5192 18.258 11.4591 17.651L11.4564 17.6245C11.3143 16.1419 10.5176 13.7327 7.18729 13.7327C6.61867 12.5142 6.375 11.3519 6.375 10.2349C6.375 7.45268 8.64937 4.8735 12 4.8735Z" fill="#0073FA"/>
</g>
</g>
<defs>
<clipPath id="clip0_4_483">
<rect width="24" height="24" fill="white"/>
</clipPath>
</defs>
</svg>
