<svg width="24" height="24" viewBox="0 0 24 24" fill="none" xmlns="http://www.w3.org/2000/svg">
<g clip-path="url(#clip0_58_685)">
<path d="M9.53882 0.391399C11.1129 -0.109261 12.8003 -0.1308 14.3866 0.329516C15.973 0.789832 17.3867 1.71123 18.4483 2.9767L14.5034 6.2933L9.53882 0.391399Z" fill="#1A73E8"/>
<path d="M18.4483 2.9767C19.7081 4.47686 20.3975 6.37375 20.395 8.3327C20.4155 9.70238 20.1342 11.0598 19.571 12.3085L14.5034 6.2933L18.4483 2.9767Z" fill="#EA4335"/>
<path d="M12.0623 5.15C11.6435 5.14864 11.2285 5.22997 10.8412 5.3893C10.4539 5.54864 10.1018 5.78286 9.80515 6.07854C9.50851 6.37422 9.27316 6.72553 9.11257 7.11235C8.95198 7.49916 8.86931 7.91387 8.86931 8.3327C8.86815 9.08854 9.13866 9.81964 9.63152 10.3927L4.66692 4.4908C5.68265 2.52764 7.43423 1.04639 9.53882 0.370799L14.5034 6.2933C14.2059 5.93463 13.8328 5.64615 13.4108 5.4485C12.9888 5.25085 12.5283 5.14892 12.0623 5.15Z" fill="#4285F4"/>
<path d="M12.0623 11.5257C12.9092 11.5257 13.7213 11.1893 14.3201 10.5905C14.9189 9.99169 15.2553 9.17953 15.2553 8.3327C15.2584 7.57832 14.9918 6.84769 14.5034 6.2727L19.571 12.3085C18.5169 14.2465 17.249 16.0604 15.7909 17.716L9.61091 10.3927C9.91052 10.7508 10.2857 11.0382 10.7096 11.2341C11.1334 11.43 11.5954 11.5296 12.0623 11.5257Z" fill="#FBBC04"/>
<path d="M9.74481 19.7142C6.96381 15.3676 3.72961 13.39 3.72961 8.3842C3.72964 7.04695 4.0511 5.72931 4.66691 4.5423L15.7909 17.716C15.3171 18.334 14.8433 18.9932 14.3798 19.7142C12.6803 22.3304 13.1541 23.896 12.0623 23.896C10.9705 23.896 11.4443 22.3304 9.74481 19.7142Z" fill="#34A853"/>
</g>
<defs>
<clipPath id="clip0_58_685">
<rect width="24" height="24" fill="white"/>
</clipPath>
</defs>
</svg>
