<svg width="24" height="25" viewBox="0 0 24 25" fill="none" xmlns="http://www.w3.org/2000/svg">
<path d="M20.8401 5.27906C20.3294 4.76807 19.7229 4.36271 19.0555 4.08615C18.388 3.80958 17.6726 3.66724 16.9501 3.66724C16.2276 3.66724 15.5122 3.80958 14.8448 4.08615C14.1773 4.36271 13.5709 4.76807 13.0601 5.27906L12.0001 6.33906L10.9401 5.27906C9.90843 4.24737 8.50915 3.66777 7.05012 3.66777C5.59109 3.66777 4.19181 4.24737 3.16012 5.27906C2.12843 6.31075 1.54883 7.71003 1.54883 9.16906C1.54883 10.6281 2.12843 12.0274 3.16012 13.0591L4.22012 14.1191L12.0001 21.8991L19.7801 14.1191L20.8401 13.0591C21.3511 12.5483 21.7565 11.9419 22.033 11.2744C22.3096 10.607 22.4519 9.89155 22.4519 9.16906C22.4519 8.44657 22.3096 7.73117 22.033 7.06371C21.7565 6.39625 21.3511 5.78982 20.8401 5.27906V5.27906Z" stroke="#138C9D" stroke-width="2" stroke-linecap="round" stroke-linejoin="round"/>
</svg>
