<svg width="24" height="24" viewBox="0 0 24 24" fill="none" xmlns="http://www.w3.org/2000/svg">
<path d="M2.9999 22C2.6999 22 2.4999 21.9 2.2999 21.7C1.9999 21.4 1.8999 21 2.0999 20.7L3.8999 15.4C3.2999 14.2 2.9999 12.8 2.9999 11.5C2.9999 9.7 3.4999 8 4.3999 6.5C5.2999 5 6.6999 3.8 8.2999 3C9.5999 2.3 10.9999 2 12.4999 2H12.9999C15.3999 2.1 17.5999 3.1 19.1999 4.8C20.8999 6.5 21.7999 8.6 21.9999 11V11.6C21.9999 13.1 21.6999 14.5 20.9999 15.9C20.1999 17.5 18.9999 18.8 17.4999 19.7C15.9999 20.6 14.2999 21.1 12.4999 21.1C11.1999 21.1 9.8999 20.8 8.6999 20.3L3.3999 22.1C3.1999 22 3.0999 22 2.9999 22ZM12.4999 4C11.2999 4 10.1999 4.3 9.1999 4.8C7.8999 5.4 6.8999 6.4 6.1999 7.6C5.3999 8.7 4.9999 10.1 4.9999 11.5C4.9999 12.7 5.2999 13.8 5.7999 14.8C5.8999 15 5.8999 15.3 5.8999 15.6L4.5999 19.4L8.3999 18.1C8.6999 18 8.8999 18 9.1999 18.2C10.1999 18.7 11.3999 19 12.4999 19C13.8999 19 15.2999 18.6 16.3999 17.9C17.5999 17.2 18.4999 16.1 19.1999 14.9C19.6999 13.9 19.9999 12.7 19.9999 11.5V11C19.8999 9.2 19.0999 7.5 17.7999 6.2C16.4999 4.9 14.7999 4.1 12.8999 4H12.4999Z" fill="#1D1D1D"/>
</svg>
