<?xml version="1.0" encoding="utf-8"?>
<!-- Generator: Adobe Illustrator 24.1.2, SVG Export Plug-In . SVG Version: 6.00 Build 0)  -->
<svg version="1.1" id="Слой_1" xmlns="http://www.w3.org/2000/svg" xmlns:xlink="http://www.w3.org/1999/xlink" x="0px" y="0px"
	 viewBox="0 0 24 24" style="enable-background:new 0 0 24 24;" xml:space="preserve">
<style type="text/css">
	.st0{fill-rule:evenodd;clip-rule:evenodd;}
</style>
<path class="st0" d="M18.7,5.3c0.4,0.4,0.4,1,0,1.4l-12,12c-0.4,0.4-1,0.4-1.4,0c-0.4-0.4-0.4-1,0-1.4l12-12
	C17.7,4.9,18.3,4.9,18.7,5.3z M5.3,5.3c0.4-0.4,1-0.4,1.4,0l12,12c0.4,0.4,0.4,1,0,1.4c-0.4,0.4-1,0.4-1.4,0l-12-12
	C4.9,6.3,4.9,5.7,5.3,5.3z"/>
</svg>
