<svg width="110" height="111" viewBox="0 0 110 111" fill="none" xmlns="http://www.w3.org/2000/svg">
<path fill-rule="evenodd" clip-rule="evenodd" d="M27.5 55.0385C12.3122 55.0385 0 67.3507 0 82.5385C0 97.7263 12.3122 110.039 27.5 110.039C42.6878 110.039 55 97.7263 55 82.5385C55 97.7263 67.3122 110.039 82.5 110.039C97.6878 110.039 110 97.7263 110 82.5385C110 67.3507 97.6878 55.0385 82.5 55.0385C97.6878 55.0385 110 42.7263 110 27.5385C110 12.3507 97.6878 0.0385132 82.5 0.0385132C67.3122 0.0385132 55 12.3507 55 27.5385C55 12.3507 42.6878 0.0385132 27.5 0.0385132C12.3122 0.0385132 0 12.3507 0 27.5385C0 42.7263 12.3122 55.0385 27.5 55.0385ZM27.5 55.0385C42.6878 55.0385 55 42.7263 55 27.5385C55 42.7263 67.3122 55.0385 82.5 55.0385C67.3122 55.0385 55 67.3507 55 82.5385C55 67.3507 42.6878 55.0385 27.5 55.0385Z" fill="#C9E3E8"/>
</svg>
