<svg width="275" height="207" viewBox="0 0 275 207" fill="none" xmlns="http://www.w3.org/2000/svg">
<path d="M105.473 206.664C104.397 206.664 103.326 206.664 102.25 206.664C101.867 206.591 101.488 206.462 101.105 206.449C97.1639 206.281 93.3902 205.341 89.7542 203.876C82.4134 200.915 76.4409 196.334 72.8178 189.107C69.2077 181.914 68.0502 174.282 69.113 166.33C70.0338 159.439 72.7748 153.423 77.8953 148.583C80.0812 146.519 82.1466 144.321 84.2809 142.2C85.7224 140.765 87.194 139.36 88.5881 138.003C81.8669 131.288 75.2877 124.716 68.6569 118.092C68.5795 118.157 68.36 118.329 68.1621 118.527C64.5132 122.173 60.8428 125.802 57.224 129.483C54.5691 132.185 51.5226 134.301 47.977 135.594C37.495 139.408 27.267 138.473 17.4175 133.478C9.8874 129.659 4.56037 123.746 1.79789 115.687C-0.271842 109.649 -0.426749 103.439 0.68342 97.2247C2.54658 86.7953 8.02851 78.8353 17.3874 73.7456C24.8229 69.7031 32.7963 68.5266 41.1009 69.9316C47.6543 71.0391 53.403 73.8448 58.0932 78.6716C60.6664 81.3177 63.3127 83.8906 65.903 86.5195C66.8239 87.4547 67.6844 88.4502 68.4504 89.282C75.2533 82.5072 81.8411 75.9435 88.4676 69.3411C88.2353 69.0869 87.9814 68.7938 87.7103 68.518C84.3497 65.1392 81.0106 61.7389 77.6113 58.3989C74.7542 55.5933 72.5081 52.4041 71.0795 48.659C67.8265 40.1345 67.9771 31.5453 70.7525 22.9562C73.1449 15.5608 77.6931 9.85905 84.4358 5.93725C91.2517 1.97237 98.5667 0.201095 106.445 0.774277C113.932 1.31729 120.477 4.05394 125.908 9.27295C129.496 12.7207 132.973 16.2934 136.501 19.8058C136.768 20.073 137.052 20.3186 137.186 20.4436C140.357 17.3493 143.489 14.4058 146.493 11.3373C149.492 8.27311 152.59 5.38131 156.575 3.61866C163.954 0.356237 171.609 0.0071626 179.393 1.58881C185.619 2.85154 191.325 5.37269 195.723 10.0832C203.937 18.8792 207.113 29.3862 205.434 41.2766C204.483 48.004 201.514 53.8091 196.652 58.6101C193.847 61.3812 191.093 64.1997 188.296 66.9751C187.538 67.725 186.712 68.4016 185.964 69.0696C192.779 75.8789 199.384 82.477 206.028 89.1096C206.153 89.0019 206.342 88.8467 206.519 88.6743C209.991 85.205 213.477 81.7487 216.932 78.2579C219.922 75.2368 223.365 72.8966 227.315 71.3365C235.714 68.0224 244.221 68.0095 252.586 71.2072C264.991 75.9522 272.509 84.8775 274.548 98.1772C274.746 99.4787 274.849 100.793 275 102.099C275 102.961 275 103.819 275 104.68C274.901 105.633 274.819 106.59 274.699 107.538C273.64 116.08 270.013 123.303 263.356 128.802C254.548 136.081 244.38 138.878 233.089 137.292C227.126 136.456 221.876 133.978 217.595 129.616C215.237 127.211 212.827 124.863 210.46 122.466C208.984 120.975 207.547 119.445 206.205 118.049C199.428 124.828 192.827 131.431 186.196 138.063C186.278 138.154 186.411 138.317 186.562 138.468C189.419 141.334 192.242 144.239 195.146 147.053C197.995 149.816 200.65 152.725 202.345 156.349C208.494 169.494 206.717 181.974 198.692 193.658C193.365 201.42 185.378 204.88 176.325 206.186C174.703 206.419 173.063 206.514 171.433 206.669C171.002 206.669 170.572 206.669 170.142 206.669C169.475 206.583 168.812 206.466 168.145 206.419C160.688 205.88 154.044 203.471 148.692 198.037C146.729 196.045 144.759 194.063 142.788 192.085C140.998 190.288 139.204 188.499 137.375 186.672C137.117 186.905 136.902 187.086 136.699 187.28C133.395 190.559 130.064 193.813 126.798 197.136C122.104 201.915 116.467 204.863 109.892 206.035C108.433 206.29 106.949 206.453 105.473 206.664ZM151.932 103.53C158.567 110.162 165.159 116.752 171.626 123.212C178.149 116.709 184.754 110.124 191.261 103.638C184.711 97.0739 178.124 90.4715 171.588 83.9208C165.056 90.4413 158.472 97.0092 151.932 103.53ZM156.975 69.2506C150.46 62.7387 143.855 56.1363 137.319 49.6028C130.796 56.1148 124.186 62.7086 117.642 69.2377C124.173 75.8013 130.757 82.4167 137.306 88.9932C143.842 82.4382 150.43 75.8229 156.975 69.2506ZM117.65 137.964C124.242 144.562 130.839 151.16 137.28 157.608C143.808 151.087 150.413 144.498 156.85 138.067C150.335 131.525 143.756 124.919 137.186 118.316C130.697 124.841 124.139 131.435 117.65 137.964ZM83.373 103.607C89.9479 110.205 96.5055 116.786 102.969 123.277C109.5 116.713 116.075 110.106 122.538 103.612C116.071 97.0954 109.518 90.5016 102.994 83.9337C96.441 90.5059 89.8747 97.0868 83.373 103.607ZM102.977 152.311C99.8102 155.522 96.8067 158.754 93.601 161.766C90.2232 164.943 88.9797 168.856 89.169 173.299C89.3368 177.242 90.4642 180.884 93.601 183.552C99.0098 188.15 107.822 187.711 112.809 182.655C115.275 180.156 117.736 177.656 120.223 175.178C121.157 174.251 122.16 173.394 123.046 172.584C116.269 165.74 109.698 159.103 102.977 152.311ZM122.908 34.9026C122.753 34.7345 122.594 34.5492 122.426 34.3768C119.354 31.2695 116.243 28.201 113.222 25.0463C109.604 21.2668 105.215 19.9049 100.142 20.7668C95.9806 21.4736 92.6157 23.4604 90.6923 27.408C89.2766 30.3214 88.8463 33.4286 89.1949 36.6221C89.5563 39.919 90.7697 42.8151 93.2568 45.1553C95.8128 47.5601 98.2439 50.0941 100.701 52.5981C101.467 53.3781 102.16 54.2357 102.766 54.9253C109.625 48.1074 116.243 41.5265 122.908 34.9026ZM151.824 172.45C155.378 176.014 158.954 179.621 162.564 183.194C163.063 183.69 163.7 184.069 164.328 184.405C167.435 186.069 170.748 186.534 174.212 186.038C179.492 185.28 183.468 182.72 185.129 177.471C186.829 172.097 186.205 167.054 182.087 162.822C181.037 161.745 179.957 160.698 178.898 159.629C176.514 157.211 174.135 154.789 171.785 152.406C165.077 159.146 158.489 165.753 151.824 172.45ZM171.738 54.7529C171.82 54.6883 171.962 54.5891 172.082 54.4685C175.348 51.2017 178.567 47.8833 181.897 44.6769C184.621 42.0523 185.822 38.8502 185.959 35.1611C186.196 28.8475 182.827 23.7534 177.233 21.9261C174.737 21.1116 172.177 20.8961 169.595 21.215C166.613 21.5771 163.907 22.6157 161.738 24.805C158.786 27.783 155.843 30.7653 152.874 33.7217C152.5 34.0923 151.975 34.3121 151.618 34.5405C158.528 41.4834 165.112 48.0988 171.738 54.7529ZM220.262 103.521C220.482 103.814 220.568 103.965 220.688 104.086C224.505 107.917 228.309 111.766 232.151 115.571C233.786 117.191 235.809 118.144 238.094 118.269C244.884 118.631 249.978 115.631 253.507 109.968C255.714 106.426 255.783 102.638 253.933 98.8883C251.932 94.8329 248.748 91.9669 244.621 90.2129C239.608 88.0839 234.776 88.6183 230.947 92.928C229.238 94.8544 227.328 96.5998 225.495 98.4142C223.761 100.117 222.014 101.806 220.262 103.521ZM54.4572 103.84C54.2249 103.521 54.1517 103.4 54.0571 103.301C50.3178 99.5433 46.5742 95.7896 42.8264 92.0402C42.551 91.7644 42.224 91.5359 41.884 91.342C35.89 87.9029 28.8031 88.907 24.014 93.9709C20.7781 97.3928 18.9795 101.379 20.0424 106.206C21.4451 112.589 27.5854 117.79 34.1129 117.984C37.835 118.096 41.2472 117.11 43.915 114.235C45.5458 112.477 47.2756 110.809 48.9839 109.128C50.7911 107.348 52.6285 105.603 54.4572 103.84Z" fill="#EBF7F9"/>
</svg>
